solid OpenSCAD_Model
  facet normal -0.0349787 0.999388 0
    outer loop
      vertex 1.58725 45.5485 0
      vertex 1.23868 45.5363 1.48
      vertex 1.58725 45.5485 1.48
    endloop
  endfacet
  facet normal -0.0349787 0.999388 0
    outer loop
      vertex 1.23868 45.5363 1.48
      vertex 1.58725 45.5485 0
      vertex 1.23868 45.5363 0
    endloop
  endfacet
  facet normal -0.961268 0.275617 0
    outer loop
      vertex -0.945369 43.5698 0
      vertex -0.849231 43.9051 1.48
      vertex -0.849231 43.9051 0
    endloop
  endfacet
  facet normal -0.961268 0.275617 0
    outer loop
      vertex -0.849231 43.9051 1.48
      vertex -0.945369 43.5698 0
      vertex -0.945369 43.5698 1.48
    endloop
  endfacet
  facet normal -0.0349007 -0.999391 0
    outer loop
      vertex 2.23868 0.0136948 0
      vertex 2.58725 0.00152206 1.48
      vertex 2.23868 0.0136948 1.48
    endloop
  endfacet
  facet normal -0.0349007 -0.999391 -0
    outer loop
      vertex 2.58725 0.00152206 1.48
      vertex 2.23868 0.0136948 0
      vertex 2.58725 0.00152206 0
    endloop
  endfacet
  facet normal -0.438381 0.898789 0
    outer loop
      vertex 0.563483 45.368 0
      vertex 0.25 45.2151 1.48
      vertex 0.563483 45.368 1.48
    endloop
  endfacet
  facet normal -0.438381 0.898789 0
    outer loop
      vertex 0.25 45.2151 1.48
      vertex 0.563483 45.368 0
      vertex 0.25 45.2151 0
    endloop
  endfacet
  facet normal 0.809029 -0.587769 0
    outer loop
      vertex 106.415 0.89303 1.48
      vertex 106.62 1.1752 0
      vertex 106.62 1.1752 1.48
    endloop
  endfacet
  facet normal 0.809029 -0.587769 0
    outer loop
      vertex 106.62 1.1752 0
      vertex 106.415 0.89303 1.48
      vertex 106.415 0.89303 0
    endloop
  endfacet
  facet normal 0.374852 0.927085 -0
    outer loop
      vertex 106.596 45.297 0
      vertex 106.273 45.4276 1.48
      vertex 106.596 45.297 1.48
    endloop
  endfacet
  facet normal 0.374852 0.927085 0
    outer loop
      vertex 106.273 45.4276 1.48
      vertex 106.596 45.297 0
      vertex 106.273 45.4276 0
    endloop
  endfacet
  facet normal -0.559319 0.828953 0
    outer loop
      vertex 0.25 45.2151 0
      vertex -0.0391531 45.02 1.48
      vertex 0.25 45.2151 1.48
    endloop
  endfacet
  facet normal -0.559319 0.828953 0
    outer loop
      vertex -0.0391531 45.02 1.48
      vertex 0.25 45.2151 0
      vertex -0.0391531 45.02 0
    endloop
  endfacet
  facet normal 0.939961 -0.341282 0
    outer loop
      vertex 106.784 1.48316 1.48
      vertex 106.903 1.81091 0
      vertex 106.903 1.81091 1.48
    endloop
  endfacet
  facet normal 0.939961 -0.341282 0
    outer loop
      vertex 106.903 1.81091 0
      vertex 106.784 1.48316 1.48
      vertex 106.784 1.48316 0
    endloop
  endfacet
  facet normal -0.999696 -0.0246534 0
    outer loop
      vertex 0.00608921 2.32561 0
      vertex -0.99391 42.8756 1.48
      vertex -0.99391 42.8756 0
    endloop
  endfacet
  facet normal -0.999696 -0.0246534 0
    outer loop
      vertex -0.99391 42.8756 1.48
      vertex 0.00608921 2.32561 0
      vertex 0.00608921 2.32561 1.48
    endloop
  endfacet
  facet normal 0.241533 -0.970393 0
    outer loop
      vertex 104.934 0.0379801 0
      vertex 105.273 0.122358 1.48
      vertex 104.934 0.0379801 1.48
    endloop
  endfacet
  facet normal 0.241533 -0.970393 0
    outer loop
      vertex 105.273 0.122358 1.48
      vertex 104.934 0.0379801 0
      vertex 105.273 0.122358 0
    endloop
  endfacet
  facet normal 0 0 1
    outer loop
      vertex 107.903 43.7391 1.48
      vertex 108 43.05 1.48
      vertex 107.976 43.3979 1.48
    endloop
  endfacet
  facet normal 0 0 1
    outer loop
      vertex 107.784 44.0668 1.48
      vertex 108 43.05 1.48
      vertex 107.903 43.7391 1.48
    endloop
  endfacet
  facet normal 0 0 1
    outer loop
      vertex 107.62 44.3748 1.48
      vertex 108 43.05 1.48
      vertex 107.784 44.0668 1.48
    endloop
  endfacet
  facet normal 0 0 1
    outer loop
      vertex 107.415 44.657 1.48
      vertex 108 43.05 1.48
      vertex 107.62 44.3748 1.48
    endloop
  endfacet
  facet normal 0 0 1
    outer loop
      vertex 107.173 44.9079 1.48
      vertex 108 43.05 1.48
      vertex 107.415 44.657 1.48
    endloop
  endfacet
  facet normal 0 0 1
    outer loop
      vertex 105.587 45.5485 1.48
      vertex 108 43.05 1.48
      vertex 107.173 44.9079 1.48
    endloop
  endfacet
  facet normal 0 0 1
    outer loop
      vertex 108 43.05 1.48
      vertex 105.587 45.5485 1.48
      vertex 107 2.5 1.48
    endloop
  endfacet
  facet normal 0 0 1
    outer loop
      vertex 104.587 0.00152206 1.48
      vertex 107 2.5 1.48
      vertex 105.587 45.5485 1.48
    endloop
  endfacet
  facet normal 0 0 1
    outer loop
      vertex 105.587 45.5485 1.48
      vertex 107.173 44.9079 1.48
      vertex 106.898 45.1226 1.48
    endloop
  endfacet
  facet normal 0 0 1
    outer loop
      vertex 107 2.5 1.48
      vertex 104.587 0.00152206 1.48
      vertex 106.976 2.15207 1.48
    endloop
  endfacet
  facet normal 0 0 1
    outer loop
      vertex 106.976 2.15207 1.48
      vertex 104.587 0.00152206 1.48
      vertex 106.903 1.81091 1.48
    endloop
  endfacet
  facet normal 0 0 1
    outer loop
      vertex 105.587 45.5485 1.48
      vertex 106.898 45.1226 1.48
      vertex 106.596 45.297 1.48
    endloop
  endfacet
  facet normal 0 0 1
    outer loop
      vertex 106.903 1.81091 1.48
      vertex 104.587 0.00152206 1.48
      vertex 106.784 1.48316 1.48
    endloop
  endfacet
  facet normal 0 0 1
    outer loop
      vertex 105.587 45.5485 1.48
      vertex 106.596 45.297 1.48
      vertex 106.273 45.4276 1.48
    endloop
  endfacet
  facet normal 0 0 1
    outer loop
      vertex 106.784 1.48316 1.48
      vertex 104.587 0.00152206 1.48
      vertex 106.62 1.1752 1.48
    endloop
  endfacet
  facet normal 0 0 1
    outer loop
      vertex 105.587 45.5485 1.48
      vertex 106.273 45.4276 1.48
      vertex 105.934 45.512 1.48
    endloop
  endfacet
  facet normal 0 0 1
    outer loop
      vertex 106.62 1.1752 1.48
      vertex 104.587 0.00152206 1.48
      vertex 106.415 0.89303 1.48
    endloop
  endfacet
  facet normal 0 0 1
    outer loop
      vertex 106.415 0.89303 1.48
      vertex 104.587 0.00152206 1.48
      vertex 106.173 0.642138 1.48
    endloop
  endfacet
  facet normal 0 0 1
    outer loop
      vertex 106.173 0.642138 1.48
      vertex 104.587 0.00152206 1.48
      vertex 105.898 0.427405 1.48
    endloop
  endfacet
  facet normal 0 0 1
    outer loop
      vertex 105.898 0.427405 1.48
      vertex 104.587 0.00152206 1.48
      vertex 105.596 0.253015 1.48
    endloop
  endfacet
  facet normal 0 0 1
    outer loop
      vertex 105.596 0.253015 1.48
      vertex 104.587 0.00152206 1.48
      vertex 105.273 0.122358 1.48
    endloop
  endfacet
  facet normal 0 0 1
    outer loop
      vertex 105.273 0.122358 1.48
      vertex 104.587 0.00152206 1.48
      vertex 104.934 0.0379801 1.48
    endloop
  endfacet
  facet normal -0 0 1
    outer loop
      vertex 56.5642 0.57115 1.48
      vertex 104.587 0.00152206 1.48
      vertex 105.587 45.5485 1.48
    endloop
  endfacet
  facet normal 0 0 1
    outer loop
      vertex 104.587 0.00152206 1.48
      vertex 56.8922 0.119677 1.48
      vertex 56.955 0.00152206 1.48
    endloop
  endfacet
  facet normal 0 0 1
    outer loop
      vertex 104.587 0.00152206 1.48
      vertex 56.5642 0.57115 1.48
      vertex 56.8922 0.119677 1.48
    endloop
  endfacet
  facet normal 0 0 1
    outer loop
      vertex 105.587 45.5485 1.48
      vertex 56.1765 0.972579 1.48
      vertex 56.5642 0.57115 1.48
    endloop
  endfacet
  facet normal 0 0 1
    outer loop
      vertex 105.587 45.5485 1.48
      vertex 55.7368 1.31615 1.48
      vertex 56.1765 0.972579 1.48
    endloop
  endfacet
  facet normal 0 0 1
    outer loop
      vertex 105.587 45.5485 1.48
      vertex 55.2535 1.59518 1.48
      vertex 55.7368 1.31615 1.48
    endloop
  endfacet
  facet normal 0 0 1
    outer loop
      vertex 105.587 45.5485 1.48
      vertex 54.7361 1.80423 1.48
      vertex 55.2535 1.59518 1.48
    endloop
  endfacet
  facet normal 0 0 1
    outer loop
      vertex 105.587 45.5485 1.48
      vertex 54.1946 1.93923 1.48
      vertex 54.7361 1.80423 1.48
    endloop
  endfacet
  facet normal 0 0 1
    outer loop
      vertex 105.587 45.5485 1.48
      vertex 53.6396 1.99756 1.48
      vertex 54.1946 1.93923 1.48
    endloop
  endfacet
  facet normal -0 0 1
    outer loop
      vertex 1.58725 45.5485 1.48
      vertex 53.6396 1.99756 1.48
      vertex 105.587 45.5485 1.48
    endloop
  endfacet
  facet normal 0 0 1
    outer loop
      vertex 53.6396 1.99756 1.48
      vertex 1.58725 45.5485 1.48
      vertex 53.0819 1.97809 1.48
    endloop
  endfacet
  facet normal 0 0 1
    outer loop
      vertex 53.0819 1.97809 1.48
      vertex 1.58725 45.5485 1.48
      vertex 52.5323 1.88118 1.48
    endloop
  endfacet
  facet normal 0 0 1
    outer loop
      vertex 52.5323 1.88118 1.48
      vertex 1.58725 45.5485 1.48
      vertex 52.0016 1.70873 1.48
    endloop
  endfacet
  facet normal 0 0 1
    outer loop
      vertex 52.0016 1.70873 1.48
      vertex 1.58725 45.5485 1.48
      vertex 51.5 1.4641 1.48
    endloop
  endfacet
  facet normal 0 0 1
    outer loop
      vertex 50.2639 0.351141 1.48
      vertex 2.58725 0.00152206 1.48
      vertex 50.0455 0.00152206 1.48
    endloop
  endfacet
  facet normal 0 0 1
    outer loop
      vertex 50.6226 0.778633 1.48
      vertex 2.58725 0.00152206 1.48
      vertex 50.2639 0.351141 1.48
    endloop
  endfacet
  facet normal 0 0 1
    outer loop
      vertex 1.58725 45.5485 1.48
      vertex 50.6226 0.778633 1.48
      vertex 51.0374 1.15204 1.48
    endloop
  endfacet
  facet normal 0 0 1
    outer loop
      vertex 51.5 1.4641 1.48
      vertex 1.58725 45.5485 1.48
      vertex 51.0374 1.15204 1.48
    endloop
  endfacet
  facet normal 0 0 1
    outer loop
      vertex 50.6226 0.778633 1.48
      vertex 1.58725 45.5485 1.48
      vertex 2.58725 0.00152206 1.48
    endloop
  endfacet
  facet normal -0 0 1
    outer loop
      vertex -0.99391 42.8756 1.48
      vertex 2.58725 0.00152206 1.48
      vertex 1.58725 45.5485 1.48
    endloop
  endfacet
  facet normal 0 0 1
    outer loop
      vertex 2.58725 0.00152206 1.48
      vertex 0.00608921 2.32561 1.48
      vertex 2.23868 0.0136948 1.48
    endloop
  endfacet
  facet normal 0 0 1
    outer loop
      vertex 2.23868 0.0136948 1.48
      vertex 0.00608921 2.32561 1.48
      vertex 1.8952 0.0742598 1.48
    endloop
  endfacet
  facet normal 0 0 1
    outer loop
      vertex 1.8952 0.0742598 1.48
      vertex 0.00608921 2.32561 1.48
      vertex 1.56348 0.18204 1.48
    endloop
  endfacet
  facet normal 0 0 1
    outer loop
      vertex -0.99391 42.8756 1.48
      vertex 1.58725 45.5485 1.48
      vertex 1.23868 45.5363 1.48
    endloop
  endfacet
  facet normal 0 0 1
    outer loop
      vertex 1.56348 0.18204 1.48
      vertex 0.00608921 2.32561 1.48
      vertex 1.25 0.334936 1.48
    endloop
  endfacet
  facet normal 0 0 1
    outer loop
      vertex -0.99391 42.8756 1.48
      vertex 1.23868 45.5363 1.48
      vertex 0.895195 45.4757 1.48
    endloop
  endfacet
  facet normal 0 0 1
    outer loop
      vertex 1.25 0.334936 1.48
      vertex 0.00608921 2.32561 1.48
      vertex 0.960846 0.529973 1.48
    endloop
  endfacet
  facet normal 0 0 1
    outer loop
      vertex -0.99391 42.8756 1.48
      vertex 0.895195 45.4757 1.48
      vertex 0.563483 45.368 1.48
    endloop
  endfacet
  facet normal 0 0 1
    outer loop
      vertex 0.960846 0.529973 1.48
      vertex 0.00608921 2.32561 1.48
      vertex 0.70165 0.763353 1.48
    endloop
  endfacet
  facet normal 0 0 1
    outer loop
      vertex 0.70165 0.763353 1.48
      vertex 0.00608921 2.32561 1.48
      vertex 0.477457 1.03054 1.48
    endloop
  endfacet
  facet normal 0 0 1
    outer loop
      vertex -0.99391 42.8756 1.48
      vertex 0.563483 45.368 1.48
      vertex 0.25 45.2151 1.48
    endloop
  endfacet
  facet normal 0 0 1
    outer loop
      vertex 0.477457 1.03054 1.48
      vertex 0.00608921 2.32561 1.48
      vertex 0.29263 1.32632 1.48
    endloop
  endfacet
  facet normal 0 0 1
    outer loop
      vertex 0.29263 1.32632 1.48
      vertex 0.00608921 2.32561 1.48
      vertex 0.150768 1.64495 1.48
    endloop
  endfacet
  facet normal 0 0 1
    outer loop
      vertex 0.150768 1.64495 1.48
      vertex 0.00608921 2.32561 1.48
      vertex 0.0546303 1.98022 1.48
    endloop
  endfacet
  facet normal 0 0 1
    outer loop
      vertex -0.99391 42.8756 1.48
      vertex 0.25 45.2151 1.48
      vertex -0.0391531 45.02 1.48
    endloop
  endfacet
  facet normal 0 0 1
    outer loop
      vertex -0.99391 42.8756 1.48
      vertex -0.0391531 45.02 1.48
      vertex -0.298349 44.7866 1.48
    endloop
  endfacet
  facet normal 0 0 1
    outer loop
      vertex -0.99391 42.8756 1.48
      vertex -0.298349 44.7866 1.48
      vertex -0.522542 44.5195 1.48
    endloop
  endfacet
  facet normal 0 0 1
    outer loop
      vertex -0.99391 42.8756 1.48
      vertex -0.522542 44.5195 1.48
      vertex -0.707369 44.2237 1.48
    endloop
  endfacet
  facet normal 0 0 1
    outer loop
      vertex -0.99391 42.8756 1.48
      vertex -0.707369 44.2237 1.48
      vertex -0.849231 43.9051 1.48
    endloop
  endfacet
  facet normal 0 0 1
    outer loop
      vertex -0.99391 42.8756 1.48
      vertex -0.849231 43.9051 1.48
      vertex -0.945369 43.5698 1.48
    endloop
  endfacet
  facet normal 0 0 1
    outer loop
      vertex -0.99391 42.8756 1.48
      vertex -0.945369 43.5698 1.48
      vertex -0.99391 43.2244 1.48
    endloop
  endfacet
  facet normal 0 0 1
    outer loop
      vertex 2.58725 0.00152206 1.48
      vertex -0.99391 42.8756 1.48
      vertex 0.00608921 2.32561 1.48
    endloop
  endfacet
  facet normal 0.719757 0.694226 0
    outer loop
      vertex 107.415 44.657 1.48
      vertex 107.173 44.9079 0
      vertex 107.173 44.9079 1.48
    endloop
  endfacet
  facet normal 0.719757 0.694226 0
    outer loop
      vertex 107.173 44.9079 0
      vertex 107.415 44.657 1.48
      vertex 107.415 44.657 0
    endloop
  endfacet
  facet normal -0.438375 -0.898792 0
    outer loop
      vertex 1.25 0.334936 0
      vertex 1.56348 0.18204 1.48
      vertex 1.25 0.334936 1.48
    endloop
  endfacet
  facet normal -0.438375 -0.898792 -0
    outer loop
      vertex 1.56348 0.18204 1.48
      vertex 1.25 0.334936 0
      vertex 1.56348 0.18204 0
    endloop
  endfacet
  facet normal 0 1 -0
    outer loop
      vertex 105.587 45.5485 0
      vertex 1.58725 45.5485 1.48
      vertex 105.587 45.5485 1.48
    endloop
  endfacet
  facet normal 0 1 0
    outer loop
      vertex 1.58725 45.5485 1.48
      vertex 105.587 45.5485 0
      vertex 1.58725 45.5485 0
    endloop
  endfacet
  facet normal -0.848044 -0.529926 0
    outer loop
      vertex 0.477457 1.03054 0
      vertex 0.29263 1.32632 1.48
      vertex 0.29263 1.32632 0
    endloop
  endfacet
  facet normal -0.848044 -0.529926 0
    outer loop
      vertex 0.29263 1.32632 1.48
      vertex 0.477457 1.03054 0
      vertex 0.477457 1.03054 1.48
    endloop
  endfacet
  facet normal -1 0 0
    outer loop
      vertex -0.99391 42.8756 0
      vertex -0.99391 43.2244 1.48
      vertex -0.99391 43.2244 0
    endloop
  endfacet
  facet normal -1 -0 0
    outer loop
      vertex -0.99391 43.2244 1.48
      vertex -0.99391 42.8756 0
      vertex -0.99391 42.8756 1.48
    endloop
  endfacet
  facet normal 0.809058 0.587728 0
    outer loop
      vertex 107.62 44.3748 1.48
      vertex 107.415 44.657 0
      vertex 107.415 44.657 1.48
    endloop
  endfacet
  facet normal 0.809058 0.587728 0
    outer loop
      vertex 107.415 44.657 0
      vertex 107.62 44.3748 1.48
      vertex 107.62 44.3748 0
    endloop
  endfacet
  facet normal 0.999696 -0.0246534 0
    outer loop
      vertex 107 2.5 1.48
      vertex 108 43.05 0
      vertex 108 43.05 1.48
    endloop
  endfacet
  facet normal 0.999696 -0.0246534 0
    outer loop
      vertex 108 43.05 0
      vertex 107 2.5 1.48
      vertex 107 2.5 0
    endloop
  endfacet
  facet normal -0.309011 -0.951058 0
    outer loop
      vertex 1.56348 0.18204 0
      vertex 1.8952 0.0742598 1.48
      vertex 1.56348 0.18204 1.48
    endloop
  endfacet
  facet normal -0.309011 -0.951058 -0
    outer loop
      vertex 1.8952 0.0742598 1.48
      vertex 1.56348 0.18204 0
      vertex 1.8952 0.0742598 0
    endloop
  endfacet
  facet normal 0 -1 0
    outer loop
      vertex 56.955 0.00152206 0
      vertex 104.587 0.00152206 1.48
      vertex 56.955 0.00152206 1.48
    endloop
  endfacet
  facet normal 0 -1 -0
    outer loop
      vertex 104.587 0.00152206 1.48
      vertex 56.955 0.00152206 0
      vertex 104.587 0.00152206 0
    endloop
  endfacet
  facet normal 0 -1 0
    outer loop
      vertex 2.58725 0.00152206 0
      vertex 50.0455 0.00152206 1.48
      vertex 2.58725 0.00152206 1.48
    endloop
  endfacet
  facet normal 0 -1 -0
    outer loop
      vertex 50.0455 0.00152206 1.48
      vertex 2.58725 0.00152206 0
      vertex 50.0455 0.00152206 0
    endloop
  endfacet
  facet normal -0.961261 -0.275639 0
    outer loop
      vertex 0.150768 1.64495 0
      vertex 0.0546303 1.98022 1.48
      vertex 0.0546303 1.98022 0
    endloop
  endfacet
  facet normal -0.961261 -0.275639 0
    outer loop
      vertex 0.0546303 1.98022 1.48
      vertex 0.150768 1.64495 0
      vertex 0.150768 1.64495 1.48
    endloop
  endfacet
  facet normal -0.990269 0.139168 0
    outer loop
      vertex -0.99391 43.2244 0
      vertex -0.945369 43.5698 1.48
      vertex -0.945369 43.5698 0
    endloop
  endfacet
  facet normal -0.990269 0.139168 0
    outer loop
      vertex -0.945369 43.5698 1.48
      vertex -0.99391 43.2244 0
      vertex -0.99391 43.2244 1.48
    endloop
  endfacet
  facet normal -0.765946 0.642905 0
    outer loop
      vertex -0.522542 44.5195 0
      vertex -0.298349 44.7866 1.48
      vertex -0.298349 44.7866 0
    endloop
  endfacet
  facet normal -0.765946 0.642905 0
    outer loop
      vertex -0.298349 44.7866 1.48
      vertex -0.522542 44.5195 0
      vertex -0.522542 44.5195 1.48
    endloop
  endfacet
  facet normal 0.939944 0.341328 0
    outer loop
      vertex 107.903 43.7391 1.48
      vertex 107.784 44.0668 0
      vertex 107.784 44.0668 1.48
    endloop
  endfacet
  facet normal 0.939944 0.341328 0
    outer loop
      vertex 107.784 44.0668 0
      vertex 107.903 43.7391 1.48
      vertex 107.903 43.7391 0
    endloop
  endfacet
  facet normal 0.104491 -0.994526 0
    outer loop
      vertex 104.587 0.00152206 0
      vertex 104.934 0.0379801 1.48
      vertex 104.587 0.00152206 1.48
    endloop
  endfacet
  facet normal 0.104491 -0.994526 0
    outer loop
      vertex 104.934 0.0379801 1.48
      vertex 104.587 0.00152206 0
      vertex 104.934 0.0379801 0
    endloop
  endfacet
  facet normal 0.241593 0.970378 -0
    outer loop
      vertex 106.273 45.4276 0
      vertex 105.934 45.512 1.48
      vertex 106.273 45.4276 1.48
    endloop
  endfacet
  facet normal 0.241593 0.970378 0
    outer loop
      vertex 105.934 45.512 1.48
      vertex 106.273 45.4276 0
      vertex 105.934 45.512 0
    endloop
  endfacet
  facet normal 0.997629 -0.0688159 0
    outer loop
      vertex 106.976 2.15207 1.48
      vertex 107 2.5 0
      vertex 107 2.5 1.48
    endloop
  endfacet
  facet normal 0.997629 -0.0688159 0
    outer loop
      vertex 107 2.5 0
      vertex 106.976 2.15207 1.48
      vertex 106.976 2.15207 0
    endloop
  endfacet
  facet normal -0.30881 0.951124 0
    outer loop
      vertex 0.895195 45.4757 0
      vertex 0.563483 45.368 1.48
      vertex 0.895195 45.4757 1.48
    endloop
  endfacet
  facet normal -0.30881 0.951124 0
    outer loop
      vertex 0.563483 45.368 1.48
      vertex 0.895195 45.4757 0
      vertex 0.563483 45.368 0
    endloop
  endfacet
  facet normal -0.913533 0.406766 0
    outer loop
      vertex -0.849231 43.9051 0
      vertex -0.707369 44.2237 1.48
      vertex -0.707369 44.2237 0
    endloop
  endfacet
  facet normal -0.913533 0.406766 0
    outer loop
      vertex -0.707369 44.2237 1.48
      vertex -0.849231 43.9051 0
      vertex -0.849231 43.9051 1.48
    endloop
  endfacet
  facet normal 0.500086 0.865975 -0
    outer loop
      vertex 106.898 45.1226 0
      vertex 106.596 45.297 1.48
      vertex 106.898 45.1226 1.48
    endloop
  endfacet
  facet normal 0.500086 0.865975 0
    outer loop
      vertex 106.596 45.297 1.48
      vertex 106.898 45.1226 0
      vertex 106.596 45.297 0
    endloop
  endfacet
  facet normal -0.84806 0.5299 0
    outer loop
      vertex -0.707369 44.2237 0
      vertex -0.522542 44.5195 1.48
      vertex -0.522542 44.5195 0
    endloop
  endfacet
  facet normal -0.84806 0.5299 0
    outer loop
      vertex -0.522542 44.5195 1.48
      vertex -0.707369 44.2237 0
      vertex -0.707369 44.2237 1.48
    endloop
  endfacet
  facet normal -0.669161 0.743118 0
    outer loop
      vertex -0.0391531 45.02 0
      vertex -0.298349 44.7866 1.48
      vertex -0.0391531 45.02 1.48
    endloop
  endfacet
  facet normal -0.669161 0.743118 0
    outer loop
      vertex -0.298349 44.7866 1.48
      vertex -0.0391531 45.02 0
      vertex -0.298349 44.7866 0
    endloop
  endfacet
  facet normal -0.559193 -0.829037 0
    outer loop
      vertex 0.960846 0.529973 0
      vertex 1.25 0.334936 1.48
      vertex 0.960846 0.529973 1.48
    endloop
  endfacet
  facet normal -0.559193 -0.829037 -0
    outer loop
      vertex 1.25 0.334936 1.48
      vertex 0.960846 0.529973 0
      vertex 1.25 0.334936 0
    endloop
  endfacet
  facet normal -0.766049 -0.642782 0
    outer loop
      vertex 0.70165 0.763353 0
      vertex 0.477457 1.03054 1.48
      vertex 0.477457 1.03054 0
    endloop
  endfacet
  facet normal -0.766049 -0.642782 0
    outer loop
      vertex 0.477457 1.03054 1.48
      vertex 0.70165 0.763353 0
      vertex 0.70165 0.763353 1.48
    endloop
  endfacet
  facet normal 0.719746 -0.694237 0
    outer loop
      vertex 106.173 0.642138 1.48
      vertex 106.415 0.89303 0
      vertex 106.415 0.89303 1.48
    endloop
  endfacet
  facet normal 0.719746 -0.694237 0
    outer loop
      vertex 106.415 0.89303 0
      vertex 106.173 0.642138 1.48
      vertex 106.173 0.642138 0
    endloop
  endfacet
  facet normal 0.500065 -0.865988 0
    outer loop
      vertex 105.596 0.253015 0
      vertex 105.898 0.427405 1.48
      vertex 105.596 0.253015 1.48
    endloop
  endfacet
  facet normal 0.500065 -0.865988 0
    outer loop
      vertex 105.898 0.427405 1.48
      vertex 105.596 0.253015 0
      vertex 105.898 0.427405 0
    endloop
  endfacet
  facet normal -0.173649 -0.984808 0
    outer loop
      vertex 1.8952 0.0742598 0
      vertex 2.23868 0.0136948 1.48
      vertex 1.8952 0.0742598 1.48
    endloop
  endfacet
  facet normal -0.173649 -0.984808 -0
    outer loop
      vertex 2.23868 0.0136948 1.48
      vertex 1.8952 0.0742598 0
      vertex 2.23868 0.0136948 0
    endloop
  endfacet
  facet normal -0.990268 -0.139172 0
    outer loop
      vertex 0.0546303 1.98022 0
      vertex 0.00608921 2.32561 1.48
      vertex 0.00608921 2.32561 0
    endloop
  endfacet
  facet normal -0.990268 -0.139172 0
    outer loop
      vertex 0.00608921 2.32561 1.48
      vertex 0.0546303 1.98022 0
      vertex 0.0546303 1.98022 1.48
    endloop
  endfacet
  facet normal -0.173744 0.984791 0
    outer loop
      vertex 1.23868 45.5363 0
      vertex 0.895195 45.4757 1.48
      vertex 1.23868 45.5363 1.48
    endloop
  endfacet
  facet normal -0.173744 0.984791 0
    outer loop
      vertex 0.895195 45.4757 1.48
      vertex 1.23868 45.5363 0
      vertex 0.895195 45.4757 0
    endloop
  endfacet
  facet normal 0.615447 -0.788178 0
    outer loop
      vertex 105.898 0.427405 0
      vertex 106.173 0.642138 1.48
      vertex 105.898 0.427405 1.48
    endloop
  endfacet
  facet normal 0.615447 -0.788178 0
    outer loop
      vertex 106.173 0.642138 1.48
      vertex 105.898 0.427405 0
      vertex 106.173 0.642138 0
    endloop
  endfacet
  facet normal 0.374993 -0.927028 0
    outer loop
      vertex 105.273 0.122358 0
      vertex 105.596 0.253015 1.48
      vertex 105.273 0.122358 1.48
    endloop
  endfacet
  facet normal 0.374993 -0.927028 0
    outer loop
      vertex 105.596 0.253015 1.48
      vertex 105.273 0.122358 0
      vertex 105.596 0.253015 0
    endloop
  endfacet
  facet normal 0.10461 0.994513 -0
    outer loop
      vertex 105.934 45.512 0
      vertex 105.587 45.5485 1.48
      vertex 105.934 45.512 1.48
    endloop
  endfacet
  facet normal 0.10461 0.994513 0
    outer loop
      vertex 105.587 45.5485 1.48
      vertex 105.934 45.512 0
      vertex 105.587 45.5485 0
    endloop
  endfacet
  facet normal -0.913547 -0.406734 0
    outer loop
      vertex 0.29263 1.32632 0
      vertex 0.150768 1.64495 1.48
      vertex 0.150768 1.64495 0
    endloop
  endfacet
  facet normal -0.913547 -0.406734 0
    outer loop
      vertex 0.150768 1.64495 1.48
      vertex 0.29263 1.32632 0
      vertex 0.29263 1.32632 1.48
    endloop
  endfacet
  facet normal 0.882645 -0.470041 0
    outer loop
      vertex 106.62 1.1752 1.48
      vertex 106.784 1.48316 0
      vertex 106.784 1.48316 1.48
    endloop
  endfacet
  facet normal 0.882645 -0.470041 0
    outer loop
      vertex 106.784 1.48316 0
      vertex 106.62 1.1752 1.48
      vertex 106.62 1.1752 0
    endloop
  endfacet
  facet normal 0.997629 0.0688218 0
    outer loop
      vertex 108 43.05 1.48
      vertex 107.976 43.3979 0
      vertex 107.976 43.3979 1.48
    endloop
  endfacet
  facet normal 0.997629 0.0688218 0
    outer loop
      vertex 107.976 43.3979 0
      vertex 108 43.05 1.48
      vertex 108 43.05 0
    endloop
  endfacet
  facet normal 0.88267 0.469993 0
    outer loop
      vertex 107.784 44.0668 1.48
      vertex 107.62 44.3748 0
      vertex 107.62 44.3748 1.48
    endloop
  endfacet
  facet normal 0.88267 0.469993 0
    outer loop
      vertex 107.62 44.3748 0
      vertex 107.784 44.0668 1.48
      vertex 107.784 44.0668 0
    endloop
  endfacet
  facet normal 0.977864 -0.209239 0
    outer loop
      vertex 106.903 1.81091 1.48
      vertex 106.976 2.15207 0
      vertex 106.976 2.15207 1.48
    endloop
  endfacet
  facet normal 0.977864 -0.209239 0
    outer loop
      vertex 106.976 2.15207 0
      vertex 106.903 1.81091 1.48
      vertex 106.903 1.81091 0
    endloop
  endfacet
  facet normal 0.615388 0.788224 -0
    outer loop
      vertex 107.173 44.9079 0
      vertex 106.898 45.1226 1.48
      vertex 107.173 44.9079 1.48
    endloop
  endfacet
  facet normal 0.615388 0.788224 0
    outer loop
      vertex 106.898 45.1226 1.48
      vertex 107.173 44.9079 0
      vertex 106.898 45.1226 0
    endloop
  endfacet
  facet normal -0.669129 -0.743146 0
    outer loop
      vertex 0.70165 0.763353 0
      vertex 0.960846 0.529973 1.48
      vertex 0.70165 0.763353 1.48
    endloop
  endfacet
  facet normal -0.669129 -0.743146 -0
    outer loop
      vertex 0.960846 0.529973 1.48
      vertex 0.70165 0.763353 0
      vertex 0.960846 0.529973 0
    endloop
  endfacet
  facet normal 0.977869 0.209216 0
    outer loop
      vertex 107.976 43.3979 1.48
      vertex 107.903 43.7391 0
      vertex 107.903 43.7391 1.48
    endloop
  endfacet
  facet normal 0.977869 0.209216 0
    outer loop
      vertex 107.903 43.7391 0
      vertex 107.976 43.3979 1.48
      vertex 107.976 43.3979 0
    endloop
  endfacet
  facet normal 0 0 -1
    outer loop
      vertex 108 43.05 0
      vertex 107.903 43.7391 0
      vertex 107.976 43.3979 0
    endloop
  endfacet
  facet normal 0 0 -1
    outer loop
      vertex 108 43.05 0
      vertex 107.784 44.0668 0
      vertex 107.903 43.7391 0
    endloop
  endfacet
  facet normal 0 0 -1
    outer loop
      vertex 108 43.05 0
      vertex 107.62 44.3748 0
      vertex 107.784 44.0668 0
    endloop
  endfacet
  facet normal 0 0 -1
    outer loop
      vertex 108 43.05 0
      vertex 107.415 44.657 0
      vertex 107.62 44.3748 0
    endloop
  endfacet
  facet normal 0 0 -1
    outer loop
      vertex 108 43.05 0
      vertex 107.173 44.9079 0
      vertex 107.415 44.657 0
    endloop
  endfacet
  facet normal 0 0 -1
    outer loop
      vertex 105.587 45.5485 0
      vertex 108 43.05 0
      vertex 107 2.5 0
    endloop
  endfacet
  facet normal 0 0 -1
    outer loop
      vertex 104.587 0.00152206 0
      vertex 107 2.5 0
      vertex 106.976 2.15207 0
    endloop
  endfacet
  facet normal 0 0 -1
    outer loop
      vertex 104.587 0.00152206 0
      vertex 106.976 2.15207 0
      vertex 106.903 1.81091 0
    endloop
  endfacet
  facet normal 0 0 -1
    outer loop
      vertex 108 43.05 0
      vertex 105.587 45.5485 0
      vertex 107.173 44.9079 0
    endloop
  endfacet
  facet normal 0 0 -1
    outer loop
      vertex 104.587 0.00152206 0
      vertex 106.903 1.81091 0
      vertex 106.784 1.48316 0
    endloop
  endfacet
  facet normal 0 0 -1
    outer loop
      vertex 104.587 0.00152206 0
      vertex 106.784 1.48316 0
      vertex 106.62 1.1752 0
    endloop
  endfacet
  facet normal 0 0 -1
    outer loop
      vertex 107.173 44.9079 0
      vertex 105.587 45.5485 0
      vertex 106.898 45.1226 0
    endloop
  endfacet
  facet normal 0 0 -1
    outer loop
      vertex 104.587 0.00152206 0
      vertex 106.62 1.1752 0
      vertex 106.415 0.89303 0
    endloop
  endfacet
  facet normal 0 0 -1
    outer loop
      vertex 106.898 45.1226 0
      vertex 105.587 45.5485 0
      vertex 106.596 45.297 0
    endloop
  endfacet
  facet normal 0 0 -1
    outer loop
      vertex 104.587 0.00152206 0
      vertex 106.415 0.89303 0
      vertex 106.173 0.642138 0
    endloop
  endfacet
  facet normal 0 0 -1
    outer loop
      vertex 106.596 45.297 0
      vertex 105.587 45.5485 0
      vertex 106.273 45.4276 0
    endloop
  endfacet
  facet normal 0 0 -1
    outer loop
      vertex 104.587 0.00152206 0
      vertex 106.173 0.642138 0
      vertex 105.898 0.427405 0
    endloop
  endfacet
  facet normal 0 0 -1
    outer loop
      vertex 104.587 0.00152206 0
      vertex 105.898 0.427405 0
      vertex 105.596 0.253015 0
    endloop
  endfacet
  facet normal 0 0 -1
    outer loop
      vertex 106.273 45.4276 0
      vertex 105.587 45.5485 0
      vertex 105.934 45.512 0
    endloop
  endfacet
  facet normal 0 0 -1
    outer loop
      vertex 104.587 0.00152206 0
      vertex 105.596 0.253015 0
      vertex 105.273 0.122358 0
    endloop
  endfacet
  facet normal 0 0 -1
    outer loop
      vertex 104.587 0.00152206 0
      vertex 105.273 0.122358 0
      vertex 104.934 0.0379801 0
    endloop
  endfacet
  facet normal -0 0 -1
    outer loop
      vertex 107 2.5 0
      vertex 104.587 0.00152206 0
      vertex 105.587 45.5485 0
    endloop
  endfacet
  facet normal 0 0 -1
    outer loop
      vertex 56.8922 0.119677 0
      vertex 104.587 0.00152206 0
      vertex 56.955 0.00152206 0
    endloop
  endfacet
  facet normal 0 0 -1
    outer loop
      vertex 56.5642 0.57115 0
      vertex 104.587 0.00152206 0
      vertex 56.8922 0.119677 0
    endloop
  endfacet
  facet normal 0 0 -1
    outer loop
      vertex 104.587 0.00152206 0
      vertex 56.5642 0.57115 0
      vertex 105.587 45.5485 0
    endloop
  endfacet
  facet normal 0 0 -1
    outer loop
      vertex 56.1765 0.972579 0
      vertex 105.587 45.5485 0
      vertex 56.5642 0.57115 0
    endloop
  endfacet
  facet normal 0 0 -1
    outer loop
      vertex 55.7368 1.31615 0
      vertex 105.587 45.5485 0
      vertex 56.1765 0.972579 0
    endloop
  endfacet
  facet normal 0 0 -1
    outer loop
      vertex 55.2535 1.59518 0
      vertex 105.587 45.5485 0
      vertex 55.7368 1.31615 0
    endloop
  endfacet
  facet normal 0 0 -1
    outer loop
      vertex 54.7361 1.80423 0
      vertex 105.587 45.5485 0
      vertex 55.2535 1.59518 0
    endloop
  endfacet
  facet normal 0 0 -1
    outer loop
      vertex 54.1946 1.93923 0
      vertex 105.587 45.5485 0
      vertex 54.7361 1.80423 0
    endloop
  endfacet
  facet normal 0 0 -1
    outer loop
      vertex 53.6396 1.99756 0
      vertex 105.587 45.5485 0
      vertex 54.1946 1.93923 0
    endloop
  endfacet
  facet normal 0 0 -1
    outer loop
      vertex 1.58725 45.5485 0
      vertex 53.6396 1.99756 0
      vertex 53.0819 1.97809 0
    endloop
  endfacet
  facet normal 0 0 -1
    outer loop
      vertex 1.58725 45.5485 0
      vertex 53.0819 1.97809 0
      vertex 52.5323 1.88118 0
    endloop
  endfacet
  facet normal 0 0 -1
    outer loop
      vertex 1.58725 45.5485 0
      vertex 52.5323 1.88118 0
      vertex 52.0016 1.70873 0
    endloop
  endfacet
  facet normal 0 0 -1
    outer loop
      vertex 1.58725 45.5485 0
      vertex 52.0016 1.70873 0
      vertex 51.5 1.4641 0
    endloop
  endfacet
  facet normal 0 0 -1
    outer loop
      vertex 1.58725 45.5485 0
      vertex 51.5 1.4641 0
      vertex 51.0374 1.15204 0
    endloop
  endfacet
  facet normal 0 0 -1
    outer loop
      vertex 2.58725 0.00152206 0
      vertex 50.2639 0.351141 0
      vertex 50.0455 0.00152206 0
    endloop
  endfacet
  facet normal 0 0 -1
    outer loop
      vertex 2.58725 0.00152206 0
      vertex 50.6226 0.778633 0
      vertex 50.2639 0.351141 0
    endloop
  endfacet
  facet normal 0 0 -1
    outer loop
      vertex 1.58725 45.5485 0
      vertex 50.6226 0.778633 0
      vertex 2.58725 0.00152206 0
    endloop
  endfacet
  facet normal 0 0 -1
    outer loop
      vertex 50.6226 0.778633 0
      vertex 1.58725 45.5485 0
      vertex 51.0374 1.15204 0
    endloop
  endfacet
  facet normal 0 0 -1
    outer loop
      vertex 0.00608921 2.32561 0
      vertex 2.58725 0.00152206 0
      vertex 2.23868 0.0136948 0
    endloop
  endfacet
  facet normal 0 0 -1
    outer loop
      vertex 0.00608921 2.32561 0
      vertex 2.23868 0.0136948 0
      vertex 1.8952 0.0742598 0
    endloop
  endfacet
  facet normal 0 0 -1
    outer loop
      vertex 53.6396 1.99756 0
      vertex 1.58725 45.5485 0
      vertex 105.587 45.5485 0
    endloop
  endfacet
  facet normal 0 0 -1
    outer loop
      vertex 0.00608921 2.32561 0
      vertex 1.8952 0.0742598 0
      vertex 1.56348 0.18204 0
    endloop
  endfacet
  facet normal 0 0 -1
    outer loop
      vertex 0.00608921 2.32561 0
      vertex 1.56348 0.18204 0
      vertex 1.25 0.334936 0
    endloop
  endfacet
  facet normal 0 0 -1
    outer loop
      vertex -0.99391 42.8756 0
      vertex 2.58725 0.00152206 0
      vertex 0.00608921 2.32561 0
    endloop
  endfacet
  facet normal 0 0 -1
    outer loop
      vertex 0.00608921 2.32561 0
      vertex 1.25 0.334936 0
      vertex 0.960846 0.529973 0
    endloop
  endfacet
  facet normal 0 0 -1
    outer loop
      vertex 2.58725 0.00152206 0
      vertex -0.99391 42.8756 0
      vertex 1.58725 45.5485 0
    endloop
  endfacet
  facet normal 0 0 -1
    outer loop
      vertex 0.00608921 2.32561 0
      vertex 0.960846 0.529973 0
      vertex 0.70165 0.763353 0
    endloop
  endfacet
  facet normal 0 0 -1
    outer loop
      vertex 1.58725 45.5485 0
      vertex -0.99391 42.8756 0
      vertex 1.23868 45.5363 0
    endloop
  endfacet
  facet normal 0 0 -1
    outer loop
      vertex 0.00608921 2.32561 0
      vertex 0.70165 0.763353 0
      vertex 0.477457 1.03054 0
    endloop
  endfacet
  facet normal 0 0 -1
    outer loop
      vertex 0.00608921 2.32561 0
      vertex 0.477457 1.03054 0
      vertex 0.29263 1.32632 0
    endloop
  endfacet
  facet normal 0 0 -1
    outer loop
      vertex 1.23868 45.5363 0
      vertex -0.99391 42.8756 0
      vertex 0.895195 45.4757 0
    endloop
  endfacet
  facet normal 0 0 -1
    outer loop
      vertex 0.00608921 2.32561 0
      vertex 0.29263 1.32632 0
      vertex 0.150768 1.64495 0
    endloop
  endfacet
  facet normal 0 0 -1
    outer loop
      vertex 0.00608921 2.32561 0
      vertex 0.150768 1.64495 0
      vertex 0.0546303 1.98022 0
    endloop
  endfacet
  facet normal 0 0 -1
    outer loop
      vertex 0.895195 45.4757 0
      vertex -0.99391 42.8756 0
      vertex 0.563483 45.368 0
    endloop
  endfacet
  facet normal 0 0 -1
    outer loop
      vertex 0.563483 45.368 0
      vertex -0.99391 42.8756 0
      vertex 0.25 45.2151 0
    endloop
  endfacet
  facet normal 0 0 -1
    outer loop
      vertex 0.25 45.2151 0
      vertex -0.99391 42.8756 0
      vertex -0.0391531 45.02 0
    endloop
  endfacet
  facet normal 0 0 -1
    outer loop
      vertex -0.0391531 45.02 0
      vertex -0.99391 42.8756 0
      vertex -0.298349 44.7866 0
    endloop
  endfacet
  facet normal 0 0 -1
    outer loop
      vertex -0.298349 44.7866 0
      vertex -0.99391 42.8756 0
      vertex -0.522542 44.5195 0
    endloop
  endfacet
  facet normal 0 0 -1
    outer loop
      vertex -0.522542 44.5195 0
      vertex -0.99391 42.8756 0
      vertex -0.707369 44.2237 0
    endloop
  endfacet
  facet normal 0 0 -1
    outer loop
      vertex -0.707369 44.2237 0
      vertex -0.99391 42.8756 0
      vertex -0.849231 43.9051 0
    endloop
  endfacet
  facet normal 0 0 -1
    outer loop
      vertex -0.849231 43.9051 0
      vertex -0.99391 42.8756 0
      vertex -0.945369 43.5698 0
    endloop
  endfacet
  facet normal 0 0 -1
    outer loop
      vertex -0.945369 43.5698 0
      vertex -0.99391 42.8756 0
      vertex -0.99391 43.2244 0
    endloop
  endfacet
  facet normal -0.883022 -0.469331 0
    outer loop
      vertex 56.955 0.00152206 0
      vertex 56.8922 0.119677 1.48
      vertex 56.8922 0.119677 0
    endloop
  endfacet
  facet normal -0.883022 -0.469331 0
    outer loop
      vertex 56.8922 0.119677 1.48
      vertex 56.955 0.00152206 0
      vertex 56.955 0.00152206 1.48
    endloop
  endfacet
  facet normal -0.374617 -0.92718 0
    outer loop
      vertex 54.7361 1.80423 0
      vertex 55.2535 1.59518 1.48
      vertex 54.7361 1.80423 1.48
    endloop
  endfacet
  facet normal -0.374617 -0.92718 -0
    outer loop
      vertex 55.2535 1.59518 1.48
      vertex 54.7361 1.80423 0
      vertex 55.2535 1.59518 0
    endloop
  endfacet
  facet normal -0.7193 -0.6947 0
    outer loop
      vertex 56.5642 0.57115 0
      vertex 56.1765 0.972579 1.48
      vertex 56.1765 0.972579 0
    endloop
  endfacet
  facet normal -0.7193 -0.6947 0
    outer loop
      vertex 56.1765 0.972579 1.48
      vertex 56.5642 0.57115 0
      vertex 56.5642 0.57115 1.48
    endloop
  endfacet
  facet normal -0.241903 -0.9703 0
    outer loop
      vertex 54.1946 1.93923 0
      vertex 54.7361 1.80423 1.48
      vertex 54.1946 1.93923 1.48
    endloop
  endfacet
  facet normal -0.241903 -0.9703 -0
    outer loop
      vertex 54.7361 1.80423 1.48
      vertex 54.1946 1.93923 0
      vertex 54.7361 1.80423 0
    endloop
  endfacet
  facet normal -0.809029 -0.587768 0
    outer loop
      vertex 56.8922 0.119677 0
      vertex 56.5642 0.57115 1.48
      vertex 56.5642 0.57115 0
    endloop
  endfacet
  facet normal -0.809029 -0.587768 0
    outer loop
      vertex 56.5642 0.57115 1.48
      vertex 56.8922 0.119677 0
      vertex 56.8922 0.119677 1.48
    endloop
  endfacet
  facet normal -0.499995 -0.866028 0
    outer loop
      vertex 55.2535 1.59518 0
      vertex 55.7368 1.31615 1.48
      vertex 55.2535 1.59518 1.48
    endloop
  endfacet
  facet normal -0.499995 -0.866028 -0
    outer loop
      vertex 55.7368 1.31615 1.48
      vertex 55.2535 1.59518 0
      vertex 55.7368 1.31615 0
    endloop
  endfacet
  facet normal 0.669051 -0.743217 0
    outer loop
      vertex 50.6226 0.778633 0
      vertex 51.0374 1.15204 1.48
      vertex 50.6226 0.778633 1.48
    endloop
  endfacet
  facet normal 0.669051 -0.743217 0
    outer loop
      vertex 51.0374 1.15204 1.48
      vertex 50.6226 0.778633 0
      vertex 51.0374 1.15204 0
    endloop
  endfacet
  facet normal 0.559233 -0.829011 0
    outer loop
      vertex 51.0374 1.15204 0
      vertex 51.5 1.4641 1.48
      vertex 51.0374 1.15204 1.48
    endloop
  endfacet
  facet normal 0.559233 -0.829011 0
    outer loop
      vertex 51.5 1.4641 1.48
      vertex 51.0374 1.15204 0
      vertex 51.5 1.4641 0
    endloop
  endfacet
  facet normal -0.615706 -0.787976 0
    outer loop
      vertex 55.7368 1.31615 0
      vertex 56.1765 0.972579 1.48
      vertex 55.7368 1.31615 1.48
    endloop
  endfacet
  facet normal -0.615706 -0.787976 -0
    outer loop
      vertex 56.1765 0.972579 1.48
      vertex 55.7368 1.31615 0
      vertex 56.1765 0.972579 0
    endloop
  endfacet
  facet normal 0.84812 -0.529804 0
    outer loop
      vertex 50.0455 0.00152206 1.48
      vertex 50.2639 0.351141 0
      vertex 50.2639 0.351141 1.48
    endloop
  endfacet
  facet normal 0.84812 -0.529804 0
    outer loop
      vertex 50.2639 0.351141 0
      vertex 50.0455 0.00152206 1.48
      vertex 50.0455 0.00152206 0
    endloop
  endfacet
  facet normal 0.173649 -0.984808 0
    outer loop
      vertex 52.5323 1.88118 0
      vertex 53.0819 1.97809 1.48
      vertex 52.5323 1.88118 1.48
    endloop
  endfacet
  facet normal 0.173649 -0.984808 0
    outer loop
      vertex 53.0819 1.97809 1.48
      vertex 52.5323 1.88118 0
      vertex 53.0819 1.97809 0
    endloop
  endfacet
  facet normal 0.309041 -0.951049 0
    outer loop
      vertex 52.0016 1.70873 0
      vertex 52.5323 1.88118 1.48
      vertex 52.0016 1.70873 1.48
    endloop
  endfacet
  facet normal 0.309041 -0.951049 0
    outer loop
      vertex 52.5323 1.88118 1.48
      vertex 52.0016 1.70873 0
      vertex 52.5323 1.88118 0
    endloop
  endfacet
  facet normal 0.438347 -0.898806 0
    outer loop
      vertex 51.5 1.4641 0
      vertex 52.0016 1.70873 1.48
      vertex 51.5 1.4641 1.48
    endloop
  endfacet
  facet normal 0.438347 -0.898806 0
    outer loop
      vertex 52.0016 1.70873 1.48
      vertex 51.5 1.4641 0
      vertex 52.0016 1.70873 0
    endloop
  endfacet
  facet normal 0.766052 -0.642779 0
    outer loop
      vertex 50.2639 0.351141 1.48
      vertex 50.6226 0.778633 0
      vertex 50.6226 0.778633 1.48
    endloop
  endfacet
  facet normal 0.766052 -0.642779 0
    outer loop
      vertex 50.6226 0.778633 0
      vertex 50.2639 0.351141 1.48
      vertex 50.2639 0.351141 0
    endloop
  endfacet
  facet normal -0.104523 -0.994522 0
    outer loop
      vertex 53.6396 1.99756 0
      vertex 54.1946 1.93923 1.48
      vertex 53.6396 1.99756 1.48
    endloop
  endfacet
  facet normal -0.104523 -0.994522 -0
    outer loop
      vertex 54.1946 1.93923 1.48
      vertex 53.6396 1.99756 0
      vertex 54.1946 1.93923 0
    endloop
  endfacet
  facet normal 0.03489 -0.999391 0
    outer loop
      vertex 53.0819 1.97809 0
      vertex 53.6396 1.99756 1.48
      vertex 53.0819 1.97809 1.48
    endloop
  endfacet
  facet normal 0.03489 -0.999391 0
    outer loop
      vertex 53.6396 1.99756 1.48
      vertex 53.0819 1.97809 0
      vertex 53.6396 1.99756 0
    endloop
  endfacet
endsolid OpenSCAD_Model
