solid OpenSCAD_Model
  facet normal 1 -0 0
    outer loop
      vertex 15 0 20
      vertex 15 30 0
      vertex 15 30 20
    endloop
  endfacet
  facet normal 1 0 0
    outer loop
      vertex 15 30 0
      vertex 15 0 20
      vertex 15 0 0
    endloop
  endfacet
  facet normal 0 0 1
    outer loop
      vertex 15 30 20
      vertex 10.2 25.2 20
      vertex 15 0 20
    endloop
  endfacet
  facet normal 0 0 1
    outer loop
      vertex 15 30 20
      vertex 4.8 25.2 20
      vertex 10.2 25.2 20
    endloop
  endfacet
  facet normal -0 0 1
    outer loop
      vertex 0 30 20
      vertex 4.8 25.2 20
      vertex 15 30 20
    endloop
  endfacet
  facet normal 0 0 1
    outer loop
      vertex 0 0 20
      vertex 4.8 25.2 20
      vertex 0 30 20
    endloop
  endfacet
  facet normal 0 0 1
    outer loop
      vertex 4.8 25.2 20
      vertex 0 0 20
      vertex 4.8 0 20
    endloop
  endfacet
  facet normal 0 0 1
    outer loop
      vertex 15 0 20
      vertex 10.2 25.2 20
      vertex 10.2 0 20
    endloop
  endfacet
  facet normal 0 0 -1
    outer loop
      vertex 4.8 0 0
      vertex 0 0 0
      vertex 4.8 25.2 0
    endloop
  endfacet
  facet normal 0 0 -1
    outer loop
      vertex 10.2 25.2 0
      vertex 15 0 0
      vertex 10.2 0 0
    endloop
  endfacet
  facet normal 0 0 -1
    outer loop
      vertex 15 0 0
      vertex 10.2 25.2 0
      vertex 15 30 0
    endloop
  endfacet
  facet normal 0 0 -1
    outer loop
      vertex 4.8 25.2 0
      vertex 15 30 0
      vertex 10.2 25.2 0
    endloop
  endfacet
  facet normal 0 0 -1
    outer loop
      vertex 4.8 25.2 0
      vertex 0 30 0
      vertex 15 30 0
    endloop
  endfacet
  facet normal 0 0 -1
    outer loop
      vertex 0 30 0
      vertex 4.8 25.2 0
      vertex 0 0 0
    endloop
  endfacet
  facet normal -1 0 0
    outer loop
      vertex 0 30 0
      vertex 0 26.4979 9.87785
      vertex 0 30 20
    endloop
  endfacet
  facet normal -1 0 0
    outer loop
      vertex 0 30 0
      vertex 0 26.4808 9.63415
      vertex 0 26.4979 9.87785
    endloop
  endfacet
  facet normal -1 0 0
    outer loop
      vertex 0 30 0
      vertex 0 26.4468 9.39223
      vertex 0 26.4808 9.63415
    endloop
  endfacet
  facet normal -1 0 0
    outer loop
      vertex 0 30 0
      vertex 0 26.396 9.15327
      vertex 0 26.4468 9.39223
    endloop
  endfacet
  facet normal -1 0 0
    outer loop
      vertex 0 30 0
      vertex 0 26.3287 8.91844
      vertex 0 26.396 9.15327
    endloop
  endfacet
  facet normal -1 0 0
    outer loop
      vertex 0 30 0
      vertex 0 26.2451 8.68888
      vertex 0 26.3287 8.91844
    endloop
  endfacet
  facet normal -1 0 0
    outer loop
      vertex 0 30 0
      vertex 0 26.1458 8.4657
      vertex 0 26.2451 8.68888
    endloop
  endfacet
  facet normal -1 0 0
    outer loop
      vertex 0 30 0
      vertex 0 26.0311 8.25
      vertex 0 26.1458 8.4657
    endloop
  endfacet
  facet normal -1 0 0
    outer loop
      vertex 0 30 0
      vertex 0 25.9016 8.04282
      vertex 0 26.0311 8.25
    endloop
  endfacet
  facet normal -1 0 0
    outer loop
      vertex 0 30 0
      vertex 0 25.758 7.84518
      vertex 0 25.9016 8.04282
    endloop
  endfacet
  facet normal -1 0 0
    outer loop
      vertex 0 30 0
      vertex 0 25.601 7.65804
      vertex 0 25.758 7.84518
    endloop
  endfacet
  facet normal -1 0 0
    outer loop
      vertex 0 30 0
      vertex 0 25.4313 7.48231
      vertex 0 25.601 7.65804
    endloop
  endfacet
  facet normal -1 0 0
    outer loop
      vertex 0 30 0
      vertex 0 25.2498 7.31884
      vertex 0 25.4313 7.48231
    endloop
  endfacet
  facet normal -1 0 0
    outer loop
      vertex 0 30 0
      vertex 0 25.0572 7.16844
      vertex 0 25.2498 7.31884
    endloop
  endfacet
  facet normal -1 0 0
    outer loop
      vertex 0 30 0
      vertex 0 24.8547 7.03183
      vertex 0 25.0572 7.16844
    endloop
  endfacet
  facet normal -1 0 0
    outer loop
      vertex 0 30 0
      vertex 0 24.6432 6.90968
      vertex 0 24.8547 7.03183
    endloop
  endfacet
  facet normal -1 0 0
    outer loop
      vertex 0 30 0
      vertex 0 24.4236 6.80259
      vertex 0 24.6432 6.90968
    endloop
  endfacet
  facet normal -1 0 0
    outer loop
      vertex 0 30 0
      vertex 0 24.1971 6.71108
      vertex 0 24.4236 6.80259
    endloop
  endfacet
  facet normal -1 0 0
    outer loop
      vertex 0 30 0
      vertex 0 23.9647 6.63558
      vertex 0 24.1971 6.71108
    endloop
  endfacet
  facet normal -1 0 0
    outer loop
      vertex 0 30 0
      vertex 0 23.7277 6.57648
      vertex 0 23.9647 6.63558
    endloop
  endfacet
  facet normal -1 0 0
    outer loop
      vertex 0 30 0
      vertex 0 23.4871 6.53406
      vertex 0 23.7277 6.57648
    endloop
  endfacet
  facet normal -1 0 0
    outer loop
      vertex 0 30 0
      vertex 0 23.2441 6.50852
      vertex 0 23.4871 6.53406
    endloop
  endfacet
  facet normal -1 0 0
    outer loop
      vertex 0 30 0
      vertex 0 23 6.5
      vertex 0 23.2441 6.50852
    endloop
  endfacet
  facet normal -1 0 0
    outer loop
      vertex 0 30 0
      vertex 0 22.7559 6.50852
      vertex 0 23 6.5
    endloop
  endfacet
  facet normal -1 0 0
    outer loop
      vertex 0 30 0
      vertex 0 22.5129 6.53406
      vertex 0 22.7559 6.50852
    endloop
  endfacet
  facet normal -1 0 0
    outer loop
      vertex 0 30 0
      vertex 0 22.2723 6.57648
      vertex 0 22.5129 6.53406
    endloop
  endfacet
  facet normal -1 0 0
    outer loop
      vertex 0 30 0
      vertex 0 22.0353 6.63558
      vertex 0 22.2723 6.57648
    endloop
  endfacet
  facet normal -1 0 0
    outer loop
      vertex 0 30 0
      vertex 0 21.8029 6.71108
      vertex 0 22.0353 6.63558
    endloop
  endfacet
  facet normal -1 0 0
    outer loop
      vertex 0 30 0
      vertex 0 21.5764 6.80259
      vertex 0 21.8029 6.71108
    endloop
  endfacet
  facet normal -1 0 0
    outer loop
      vertex 0 0 0
      vertex 0 21.5764 6.80259
      vertex 0 30 0
    endloop
  endfacet
  facet normal -1 -0 0
    outer loop
      vertex 0 21.5764 6.80259
      vertex 0 0 0
      vertex 0 21.3568 6.90968
    endloop
  endfacet
  facet normal -1 -0 0
    outer loop
      vertex 0 21.3568 6.90968
      vertex 0 0 0
      vertex 0 21.1453 7.03183
    endloop
  endfacet
  facet normal -1 -0 0
    outer loop
      vertex 0 21.1453 7.03183
      vertex 0 0 0
      vertex 0 20.9428 7.16844
    endloop
  endfacet
  facet normal -1 -0 0
    outer loop
      vertex 0 19.5021 9.87785
      vertex 0 0 0
      vertex 0 19.5021 10.1221
    endloop
  endfacet
  facet normal -1 -0 0
    outer loop
      vertex 0 19.5192 9.63415
      vertex 0 0 0
      vertex 0 19.5021 9.87785
    endloop
  endfacet
  facet normal -1 -0 0
    outer loop
      vertex 0 19.5532 9.39223
      vertex 0 0 0
      vertex 0 19.5192 9.63415
    endloop
  endfacet
  facet normal -1 -0 0
    outer loop
      vertex 0 19.604 9.15327
      vertex 0 0 0
      vertex 0 19.5532 9.39223
    endloop
  endfacet
  facet normal -1 -0 0
    outer loop
      vertex 0 19.6713 8.91844
      vertex 0 0 0
      vertex 0 19.604 9.15327
    endloop
  endfacet
  facet normal -1 -0 0
    outer loop
      vertex 0 19.7549 8.68888
      vertex 0 0 0
      vertex 0 19.6713 8.91844
    endloop
  endfacet
  facet normal -1 -0 0
    outer loop
      vertex 0 19.8542 8.4657
      vertex 0 0 0
      vertex 0 19.7549 8.68888
    endloop
  endfacet
  facet normal -1 -0 0
    outer loop
      vertex 0 19.9689 8.25
      vertex 0 0 0
      vertex 0 19.8542 8.4657
    endloop
  endfacet
  facet normal -1 -0 0
    outer loop
      vertex 0 20.0984 8.04282
      vertex 0 0 0
      vertex 0 19.9689 8.25
    endloop
  endfacet
  facet normal -1 -0 0
    outer loop
      vertex 0 20.242 7.84518
      vertex 0 0 0
      vertex 0 20.0984 8.04282
    endloop
  endfacet
  facet normal -1 -0 0
    outer loop
      vertex 0 20.399 7.65804
      vertex 0 0 0
      vertex 0 20.242 7.84518
    endloop
  endfacet
  facet normal -1 -0 0
    outer loop
      vertex 0 20.5687 7.48231
      vertex 0 0 0
      vertex 0 20.399 7.65804
    endloop
  endfacet
  facet normal -1 -0 0
    outer loop
      vertex 0 20.7502 7.31884
      vertex 0 0 0
      vertex 0 20.5687 7.48231
    endloop
  endfacet
  facet normal -1 -0 0
    outer loop
      vertex 0 20.9428 7.16844
      vertex 0 0 0
      vertex 0 20.7502 7.31884
    endloop
  endfacet
  facet normal -1 0 0
    outer loop
      vertex 0 26.4979 10.1221
      vertex 0 30 20
      vertex 0 26.4979 9.87785
    endloop
  endfacet
  facet normal -1 0 0
    outer loop
      vertex 0 26.4808 10.3658
      vertex 0 30 20
      vertex 0 26.4979 10.1221
    endloop
  endfacet
  facet normal -1 0 0
    outer loop
      vertex 0 26.4468 10.6078
      vertex 0 30 20
      vertex 0 26.4808 10.3658
    endloop
  endfacet
  facet normal -1 0 0
    outer loop
      vertex 0 26.396 10.8467
      vertex 0 30 20
      vertex 0 26.4468 10.6078
    endloop
  endfacet
  facet normal -1 0 0
    outer loop
      vertex 0 26.3287 11.0816
      vertex 0 30 20
      vertex 0 26.396 10.8467
    endloop
  endfacet
  facet normal -1 0 0
    outer loop
      vertex 0 26.2451 11.3111
      vertex 0 30 20
      vertex 0 26.3287 11.0816
    endloop
  endfacet
  facet normal -1 0 0
    outer loop
      vertex 0 26.1458 11.5343
      vertex 0 30 20
      vertex 0 26.2451 11.3111
    endloop
  endfacet
  facet normal -1 0 0
    outer loop
      vertex 0 26.0311 11.75
      vertex 0 30 20
      vertex 0 26.1458 11.5343
    endloop
  endfacet
  facet normal -1 0 0
    outer loop
      vertex 0 25.9016 11.9572
      vertex 0 30 20
      vertex 0 26.0311 11.75
    endloop
  endfacet
  facet normal -1 0 0
    outer loop
      vertex 0 25.758 12.1548
      vertex 0 30 20
      vertex 0 25.9016 11.9572
    endloop
  endfacet
  facet normal -1 0 0
    outer loop
      vertex 0 25.601 12.342
      vertex 0 30 20
      vertex 0 25.758 12.1548
    endloop
  endfacet
  facet normal -1 0 0
    outer loop
      vertex 0 25.4313 12.5177
      vertex 0 30 20
      vertex 0 25.601 12.342
    endloop
  endfacet
  facet normal -1 0 0
    outer loop
      vertex 0 25.2498 12.6812
      vertex 0 30 20
      vertex 0 25.4313 12.5177
    endloop
  endfacet
  facet normal -1 0 0
    outer loop
      vertex 0 25.0572 12.8316
      vertex 0 30 20
      vertex 0 25.2498 12.6812
    endloop
  endfacet
  facet normal -1 0 0
    outer loop
      vertex 0 24.8547 12.9682
      vertex 0 30 20
      vertex 0 25.0572 12.8316
    endloop
  endfacet
  facet normal -1 0 0
    outer loop
      vertex 0 24.6432 13.0903
      vertex 0 30 20
      vertex 0 24.8547 12.9682
    endloop
  endfacet
  facet normal -1 0 0
    outer loop
      vertex 0 24.4236 13.1974
      vertex 0 30 20
      vertex 0 24.6432 13.0903
    endloop
  endfacet
  facet normal -1 0 0
    outer loop
      vertex 0 24.1971 13.2889
      vertex 0 30 20
      vertex 0 24.4236 13.1974
    endloop
  endfacet
  facet normal -1 0 0
    outer loop
      vertex 0 23.9647 13.3644
      vertex 0 30 20
      vertex 0 24.1971 13.2889
    endloop
  endfacet
  facet normal -1 0 0
    outer loop
      vertex 0 23.7277 13.4235
      vertex 0 30 20
      vertex 0 23.9647 13.3644
    endloop
  endfacet
  facet normal -1 0 0
    outer loop
      vertex 0 23.4871 13.4659
      vertex 0 30 20
      vertex 0 23.7277 13.4235
    endloop
  endfacet
  facet normal -1 0 0
    outer loop
      vertex 0 23.2441 13.4915
      vertex 0 30 20
      vertex 0 23.4871 13.4659
    endloop
  endfacet
  facet normal -1 0 0
    outer loop
      vertex 0 23 13.5
      vertex 0 30 20
      vertex 0 23.2441 13.4915
    endloop
  endfacet
  facet normal -1 0 0
    outer loop
      vertex 0 22.7559 13.4915
      vertex 0 30 20
      vertex 0 23 13.5
    endloop
  endfacet
  facet normal -1 0 0
    outer loop
      vertex 0 22.5129 13.4659
      vertex 0 30 20
      vertex 0 22.7559 13.4915
    endloop
  endfacet
  facet normal -1 0 0
    outer loop
      vertex 0 22.2723 13.4235
      vertex 0 30 20
      vertex 0 22.5129 13.4659
    endloop
  endfacet
  facet normal -1 0 0
    outer loop
      vertex 0 22.0353 13.3644
      vertex 0 30 20
      vertex 0 22.2723 13.4235
    endloop
  endfacet
  facet normal -1 0 0
    outer loop
      vertex 0 21.8029 13.2889
      vertex 0 30 20
      vertex 0 22.0353 13.3644
    endloop
  endfacet
  facet normal -1 0 0
    outer loop
      vertex 0 21.5764 13.1974
      vertex 0 30 20
      vertex 0 21.8029 13.2889
    endloop
  endfacet
  facet normal -1 0 0
    outer loop
      vertex 0 0 20
      vertex 0 21.5764 13.1974
      vertex 0 21.3568 13.0903
    endloop
  endfacet
  facet normal -1 0 0
    outer loop
      vertex 0 0 20
      vertex 0 21.3568 13.0903
      vertex 0 21.1453 12.9682
    endloop
  endfacet
  facet normal -1 0 0
    outer loop
      vertex 0 0 20
      vertex 0 21.1453 12.9682
      vertex 0 20.9428 12.8316
    endloop
  endfacet
  facet normal -1 0 0
    outer loop
      vertex 0 0 20
      vertex 0 20.9428 12.8316
      vertex 0 20.7502 12.6812
    endloop
  endfacet
  facet normal -1 0 0
    outer loop
      vertex 0 0 20
      vertex 0 19.5021 10.1221
      vertex 0 0 0
    endloop
  endfacet
  facet normal -1 0 0
    outer loop
      vertex 0 19.5021 10.1221
      vertex 0 0 20
      vertex 0 19.5192 10.3658
    endloop
  endfacet
  facet normal -1 0 0
    outer loop
      vertex 0 19.5192 10.3658
      vertex 0 0 20
      vertex 0 19.5532 10.6078
    endloop
  endfacet
  facet normal -1 0 0
    outer loop
      vertex 0 19.5532 10.6078
      vertex 0 0 20
      vertex 0 19.604 10.8467
    endloop
  endfacet
  facet normal -1 0 0
    outer loop
      vertex 0 19.604 10.8467
      vertex 0 0 20
      vertex 0 19.6713 11.0816
    endloop
  endfacet
  facet normal -1 0 0
    outer loop
      vertex 0 19.6713 11.0816
      vertex 0 0 20
      vertex 0 19.7549 11.3111
    endloop
  endfacet
  facet normal -1 0 0
    outer loop
      vertex 0 19.7549 11.3111
      vertex 0 0 20
      vertex 0 19.8542 11.5343
    endloop
  endfacet
  facet normal -1 0 0
    outer loop
      vertex 0 19.8542 11.5343
      vertex 0 0 20
      vertex 0 19.9689 11.75
    endloop
  endfacet
  facet normal -1 0 0
    outer loop
      vertex 0 19.9689 11.75
      vertex 0 0 20
      vertex 0 20.0984 11.9572
    endloop
  endfacet
  facet normal -1 0 0
    outer loop
      vertex 0 20.0984 11.9572
      vertex 0 0 20
      vertex 0 20.242 12.1548
    endloop
  endfacet
  facet normal -1 0 0
    outer loop
      vertex 0 20.242 12.1548
      vertex 0 0 20
      vertex 0 20.399 12.342
    endloop
  endfacet
  facet normal -1 0 0
    outer loop
      vertex 0 20.399 12.342
      vertex 0 0 20
      vertex 0 20.5687 12.5177
    endloop
  endfacet
  facet normal -1 0 0
    outer loop
      vertex 0 20.5687 12.5177
      vertex 0 0 20
      vertex 0 20.7502 12.6812
    endloop
  endfacet
  facet normal -1 0 0
    outer loop
      vertex 0 21.5764 13.1974
      vertex 0 0 20
      vertex 0 30 20
    endloop
  endfacet
  facet normal 0 1 -0
    outer loop
      vertex 15 30 0
      vertex 0 30 20
      vertex 15 30 20
    endloop
  endfacet
  facet normal 0 1 0
    outer loop
      vertex 0 30 20
      vertex 15 30 0
      vertex 0 30 0
    endloop
  endfacet
  facet normal 0 -1 0
    outer loop
      vertex 0 0 0
      vertex 4.8 0 20
      vertex 0 0 20
    endloop
  endfacet
  facet normal 0 -1 -0
    outer loop
      vertex 4.8 0 20
      vertex 0 0 0
      vertex 4.8 0 0
    endloop
  endfacet
  facet normal 0 -1 0
    outer loop
      vertex 10.2 0 0
      vertex 15 0 20
      vertex 10.2 0 20
    endloop
  endfacet
  facet normal 0 -1 -0
    outer loop
      vertex 15 0 20
      vertex 10.2 0 0
      vertex 15 0 0
    endloop
  endfacet
  facet normal -0 -0.766103 -0.642718
    outer loop
      vertex 0 20.399 7.65804
      vertex -5.78129 20.242 7.84518
      vertex -5.85452 20.399 7.65804
    endloop
  endfacet
  facet normal 0 -0.766103 -0.642718
    outer loop
      vertex -5.78129 20.242 7.84518
      vertex 0 20.399 7.65804
      vertex 0 20.242 7.84518
    endloop
  endfacet
  facet normal 0 0.173631 -0.984811
    outer loop
      vertex -7.29453 23.4871 6.53406
      vertex 0 23.7277 6.57648
      vertex 0 23.4871 6.53406
    endloop
  endfacet
  facet normal 0 0.173631 -0.984811
    outer loop
      vertex 0 23.7277 6.57648
      vertex -7.29453 23.4871 6.53406
      vertex -7.40671 23.7277 6.57648
    endloop
  endfacet
  facet normal 0 0.374565 0.927201
    outer loop
      vertex 0 24.4236 13.1974
      vertex -7.62559 24.1971 13.2889
      vertex 0 24.1971 13.2889
    endloop
  endfacet
  facet normal 0 0.374565 0.927201
    outer loop
      vertex -7.62559 24.1971 13.2889
      vertex 0 24.4236 13.1974
      vertex -7.73121 24.4236 13.1974
    endloop
  endfacet
  facet normal 0 -0.615469 0.788161
    outer loop
      vertex 0 20.9428 12.8316
      vertex -6.01831 20.7502 12.6812
      vertex 0 20.7502 12.6812
    endloop
  endfacet
  facet normal 0 -0.615469 0.788161
    outer loop
      vertex -6.01831 20.7502 12.6812
      vertex 0 20.9428 12.8316
      vertex -6.10807 20.9428 12.8316
    endloop
  endfacet
  facet normal 0 0.961323 0.275424
    outer loop
      vertex 0 26.396 10.8467
      vertex -6 26.3287 11.0816
      vertex 0 26.3287 11.0816
    endloop
  endfacet
  facet normal 0 0.961323 0.275424
    outer loop
      vertex -6 26.3287 11.0816
      vertex 0 26.396 10.8467
      vertex -6 26.396 10.8467
    endloop
  endfacet
  facet normal -0 0.615469 0.788161
    outer loop
      vertex -8 25.2498 12.6812
      vertex 0 25.0572 12.8316
      vertex 0 25.2498 12.6812
    endloop
  endfacet
  facet normal 0 0.615469 0.788161
    outer loop
      vertex 0 25.0572 12.8316
      vertex -8 25.2498 12.6812
      vertex -8 25.0572 12.8316
    endloop
  endfacet
  facet normal 0 0.88293 -0.469504
    outer loop
      vertex 0 26.0311 8.25
      vertex -6 26.1458 8.4657
      vertex 0 26.1458 8.4657
    endloop
  endfacet
  facet normal 0 0.88293 -0.469504
    outer loop
      vertex -6 26.1458 8.4657
      vertex 0 26.0311 8.25
      vertex -6 26.0311 8.25
    endloop
  endfacet
  facet normal 0 0.809005 -0.587802
    outer loop
      vertex 0 25.758 7.84518
      vertex -6 25.9016 8.04282
      vertex 0 25.9016 8.04282
    endloop
  endfacet
  facet normal 0 0.809005 -0.587802
    outer loop
      vertex -6 25.9016 8.04282
      vertex 0 25.758 7.84518
      vertex -6 25.758 7.84518
    endloop
  endfacet
  facet normal 0 0.0348825 -0.999391
    outer loop
      vertex -7.06738 23 6.5
      vertex 0 23.2441 6.50852
      vertex 0 23 6.5
    endloop
  endfacet
  facet normal 0 0.0348825 -0.999391
    outer loop
      vertex 0 23.2441 6.50852
      vertex -7.06738 23 6.5
      vertex -7.18123 23.2441 6.50852
    endloop
  endfacet
  facet normal 0 0.559255 -0.828996
    outer loop
      vertex -7.93225 24.8547 7.03183
      vertex 0 25.0572 7.16844
      vertex 0 24.8547 7.03183
    endloop
  endfacet
  facet normal 0.000948129 0.559473 -0.828848
    outer loop
      vertex -8 25.0572 7.16844
      vertex -7.93225 24.8547 7.03183
      vertex -8 25 7.12983
    endloop
  endfacet
  facet normal 0 0.559255 -0.828996
    outer loop
      vertex -7.93225 24.8547 7.03183
      vertex -8 25.0572 7.16844
      vertex 0 25.0572 7.16844
    endloop
  endfacet
  facet normal 0 -0.104527 -0.994522
    outer loop
      vertex -6.84024 22.5129 6.53406
      vertex 0 22.7559 6.50852
      vertex 0 22.5129 6.53406
    endloop
  endfacet
  facet normal -0 -0.104527 -0.994522
    outer loop
      vertex 0 22.7559 6.50852
      vertex -6.84024 22.5129 6.53406
      vertex -6.95354 22.7559 6.50852
    endloop
  endfacet
  facet normal 0 0.173552 0.984825
    outer loop
      vertex 0 23.7277 13.4235
      vertex -7.29453 23.4871 13.4659
      vertex 0 23.4871 13.4659
    endloop
  endfacet
  facet normal 0 0.173552 0.984825
    outer loop
      vertex -7.29453 23.4871 13.4659
      vertex 0 23.7277 13.4235
      vertex -7.40671 23.7277 13.4235
    endloop
  endfacet
  facet normal 0 -0.3746 -0.927187
    outer loop
      vertex -6.40356 21.5764 6.80259
      vertex 0 21.8029 6.71108
      vertex 0 21.5764 6.80259
    endloop
  endfacet
  facet normal -0 -0.3746 -0.927187
    outer loop
      vertex 0 21.8029 6.71108
      vertex -6.40356 21.5764 6.80259
      vertex -6.50918 21.8029 6.71108
    endloop
  endfacet
  facet normal 0 0.500124 -0.865954
    outer loop
      vertex -7.8336 24.6432 6.90968
      vertex 0 24.8547 7.03183
      vertex 0 24.6432 6.90968
    endloop
  endfacet
  facet normal 0 0.500124 -0.865954
    outer loop
      vertex 0 24.8547 7.03183
      vertex -7.8336 24.6432 6.90968
      vertex -7.93225 24.8547 7.03183
    endloop
  endfacet
  facet normal 0 0.241958 -0.970287
    outer loop
      vertex -7.40671 23.7277 6.57648
      vertex 0 23.9647 6.63558
      vertex 0 23.7277 6.57648
    endloop
  endfacet
  facet normal 0 0.241958 -0.970287
    outer loop
      vertex 0 23.9647 6.63558
      vertex -7.40671 23.7277 6.57648
      vertex -7.51725 23.9647 6.63558
    endloop
  endfacet
  facet normal -0 -0.961301 -0.2755
    outer loop
      vertex 0 19.6713 8.91844
      vertex -5.48379 19.604 9.15327
      vertex -5.51519 19.6713 8.91844
    endloop
  endfacet
  facet normal 0 -0.961301 -0.2755
    outer loop
      vertex -5.48379 19.604 9.15327
      vertex 0 19.6713 8.91844
      vertex 0 19.604 9.15327
    endloop
  endfacet
  facet normal 0 -0.374565 0.927201
    outer loop
      vertex 0 21.8029 13.2889
      vertex -6.40356 21.5764 13.1974
      vertex 0 21.5764 13.1974
    endloop
  endfacet
  facet normal 0 -0.374565 0.927201
    outer loop
      vertex -6.40356 21.5764 13.1974
      vertex 0 21.8029 13.2889
      vertex -6.50918 21.8029 13.2889
    endloop
  endfacet
  facet normal 0 0.719619 0.694369
    outer loop
      vertex 0 25.4313 12.5177
      vertex -6 25.4973 12.4493
      vertex -8 25.4313 12.5177
    endloop
  endfacet
  facet normal -7.69635e-06 0.719282 0.694719
    outer loop
      vertex 0 25.601 12.342
      vertex -6 25.4973 12.4493
      vertex 0 25.4313 12.5177
    endloop
  endfacet
  facet normal 0 0.719067 0.694941
    outer loop
      vertex -6 25.4973 12.4493
      vertex 0 25.601 12.342
      vertex -6 25.601 12.342
    endloop
  endfacet
  facet normal 0 0.719619 0.694369
    outer loop
      vertex -8 25.4313 12.5177
      vertex -6 25.4973 12.4493
      vertex -8 25.4973 12.4493
    endloop
  endfacet
  facet normal 0 0.766205 0.642597
    outer loop
      vertex 0 25.758 12.1548
      vertex -6 25.601 12.342
      vertex 0 25.601 12.342
    endloop
  endfacet
  facet normal 0 0.766205 0.642597
    outer loop
      vertex -6 25.601 12.342
      vertex 0 25.758 12.1548
      vertex -6 25.758 12.1548
    endloop
  endfacet
  facet normal -0 -0.990268 -0.139175
    outer loop
      vertex 0 19.5532 9.39223
      vertex -5.44425 19.5192 9.63415
      vertex -5.4601 19.5532 9.39223
    endloop
  endfacet
  facet normal 0 -0.990268 -0.139175
    outer loop
      vertex -5.44425 19.5192 9.63415
      vertex 0 19.5532 9.39223
      vertex 0 19.5192 9.63415
    endloop
  endfacet
  facet normal 0 0.961301 -0.2755
    outer loop
      vertex 0 26.3287 8.91844
      vertex -6 26.396 9.15327
      vertex 0 26.396 9.15327
    endloop
  endfacet
  facet normal 0 0.961301 -0.2755
    outer loop
      vertex -6 26.396 9.15327
      vertex 0 26.3287 8.91844
      vertex -6 26.3287 8.91844
    endloop
  endfacet
  facet normal 0 -0.997547 0.0699961
    outer loop
      vertex -5.4363 19.5021 10.1221
      vertex 0 19.5192 10.3658
      vertex -5.44425 19.5192 10.3658
    endloop
  endfacet
  facet normal 0 -0.997547 0.0699961
    outer loop
      vertex 0 19.5192 10.3658
      vertex -5.4363 19.5021 10.1221
      vertex 0 19.5021 10.1221
    endloop
  endfacet
  facet normal 0 0.939602 0.342269
    outer loop
      vertex 0 26.3287 11.0816
      vertex -6 26.2451 11.3111
      vertex 0 26.2451 11.3111
    endloop
  endfacet
  facet normal 0 0.939602 0.342269
    outer loop
      vertex -6 26.2451 11.3111
      vertex 0 26.3287 11.0816
      vertex -6 26.3287 11.0816
    endloop
  endfacet
  facet normal -0 -0.978141 -0.207941
    outer loop
      vertex 0 19.604 9.15327
      vertex -5.4601 19.5532 9.39223
      vertex -5.48379 19.604 9.15327
    endloop
  endfacet
  facet normal 0 -0.978141 -0.207941
    outer loop
      vertex -5.4601 19.5532 9.39223
      vertex 0 19.604 9.15327
      vertex 0 19.5532 9.39223
    endloop
  endfacet
  facet normal 0 0.766103 -0.642718
    outer loop
      vertex 0 25.601 7.65804
      vertex -6 25.758 7.84518
      vertex 0 25.758 7.84518
    endloop
  endfacet
  facet normal 0 0.766103 -0.642718
    outer loop
      vertex -6 25.758 7.84518
      vertex 0 25.601 7.65804
      vertex -6 25.601 7.65804
    endloop
  endfacet
  facet normal 0 -0.173552 0.984825
    outer loop
      vertex 0 22.5129 13.4659
      vertex -6.72806 22.2723 13.4235
      vertex 0 22.2723 13.4235
    endloop
  endfacet
  facet normal 0 -0.173552 0.984825
    outer loop
      vertex -6.72806 22.2723 13.4235
      vertex 0 22.5129 13.4659
      vertex -6.84024 22.5129 13.4659
    endloop
  endfacet
  facet normal 0 -0.559255 -0.828996
    outer loop
      vertex -6.10807 20.9428 7.16844
      vertex 0 21.1453 7.03183
      vertex 0 20.9428 7.16844
    endloop
  endfacet
  facet normal -0 -0.559255 -0.828996
    outer loop
      vertex 0 21.1453 7.03183
      vertex -6.10807 20.9428 7.16844
      vertex -6.20252 21.1453 7.03183
    endloop
  endfacet
  facet normal 0 0.913646 -0.406511
    outer loop
      vertex 0 26.1458 8.4657
      vertex -6 26.2451 8.68888
      vertex 0 26.2451 8.68888
    endloop
  endfacet
  facet normal 0 0.913646 -0.406511
    outer loop
      vertex -6 26.2451 8.68888
      vertex 0 26.1458 8.4657
      vertex -6 26.1458 8.4657
    endloop
  endfacet
  facet normal 0 0.308975 -0.95107
    outer loop
      vertex -7.51725 23.9647 6.63558
      vertex 0 24.1971 6.71108
      vertex 0 23.9647 6.63558
    endloop
  endfacet
  facet normal 0 0.308975 -0.95107
    outer loop
      vertex 0 24.1971 6.71108
      vertex -7.51725 23.9647 6.63558
      vertex -7.62559 24.1971 6.71108
    endloop
  endfacet
  facet normal 0 -0.499971 0.866042
    outer loop
      vertex 0 21.3568 13.0903
      vertex -6.20252 21.1453 12.9682
      vertex 0 21.1453 12.9682
    endloop
  endfacet
  facet normal 0 -0.499971 0.866042
    outer loop
      vertex -6.20252 21.1453 12.9682
      vertex 0 21.3568 13.0903
      vertex -6.30117 21.3568 13.0903
    endloop
  endfacet
  facet normal 0 -0.438318 -0.89882
    outer loop
      vertex -6.30117 21.3568 6.90968
      vertex 0 21.5764 6.80259
      vertex 0 21.3568 6.90968
    endloop
  endfacet
  facet normal -0 -0.438318 -0.89882
    outer loop
      vertex 0 21.5764 6.80259
      vertex -6.30117 21.3568 6.90968
      vertex -6.40356 21.5764 6.80259
    endloop
  endfacet
  facet normal 0 -0.308975 0.95107
    outer loop
      vertex 0 22.0353 13.3644
      vertex -6.50918 21.8029 13.2889
      vertex 0 21.8029 13.2889
    endloop
  endfacet
  facet normal 0 -0.308975 0.95107
    outer loop
      vertex -6.50918 21.8029 13.2889
      vertex 0 22.0353 13.3644
      vertex -6.61752 22.0353 13.3644
    endloop
  endfacet
  facet normal 0 0.3746 -0.927187
    outer loop
      vertex -7.62559 24.1971 6.71108
      vertex 0 24.4236 6.80259
      vertex 0 24.1971 6.71108
    endloop
  endfacet
  facet normal 0 0.3746 -0.927187
    outer loop
      vertex 0 24.4236 6.80259
      vertex -7.62559 24.1971 6.71108
      vertex -7.73121 24.4236 6.80259
    endloop
  endfacet
  facet normal 0 0.241958 0.970287
    outer loop
      vertex 0 23.9647 13.3644
      vertex -7.40671 23.7277 13.4235
      vertex 0 23.7277 13.4235
    endloop
  endfacet
  facet normal 0 0.241958 0.970287
    outer loop
      vertex -7.40671 23.7277 13.4235
      vertex 0 23.9647 13.3644
      vertex -7.51725 23.9647 13.3644
    endloop
  endfacet
  facet normal 0 -0.173631 -0.984811
    outer loop
      vertex -6.72806 22.2723 6.57648
      vertex 0 22.5129 6.53406
      vertex 0 22.2723 6.57648
    endloop
  endfacet
  facet normal -0 -0.173631 -0.984811
    outer loop
      vertex 0 22.5129 6.53406
      vertex -6.72806 22.2723 6.57648
      vertex -6.84024 22.5129 6.53406
    endloop
  endfacet
  facet normal 0 0.990268 -0.139175
    outer loop
      vertex 0 26.4468 9.39223
      vertex -6 26.4808 9.63415
      vertex 0 26.4808 9.63415
    endloop
  endfacet
  facet normal 0 0.990268 -0.139175
    outer loop
      vertex -6 26.4808 9.63415
      vertex 0 26.4468 9.39223
      vertex -6 26.4468 9.39223
    endloop
  endfacet
  facet normal 0 0.615469 -0.788161
    outer loop
      vertex -8 25.0572 7.16844
      vertex 0 25.2498 7.31884
      vertex 0 25.0572 7.16844
    endloop
  endfacet
  facet normal 0 0.615469 -0.788161
    outer loop
      vertex 0 25.2498 7.31884
      vertex -8 25.0572 7.16844
      vertex -8 25.2498 7.31884
    endloop
  endfacet
  facet normal 0 0.10477 0.994496
    outer loop
      vertex 0 23.4871 13.4659
      vertex -7.18123 23.2441 13.4915
      vertex 0 23.2441 13.4915
    endloop
  endfacet
  facet normal 0 0.10477 0.994496
    outer loop
      vertex -7.18123 23.2441 13.4915
      vertex 0 23.4871 13.4659
      vertex -7.29453 23.4871 13.4659
    endloop
  endfacet
  facet normal -0 -0.913646 -0.406511
    outer loop
      vertex 0 19.8542 8.4657
      vertex -5.55415 19.7549 8.68888
      vertex -5.60048 19.8542 8.4657
    endloop
  endfacet
  facet normal 0 -0.913646 -0.406511
    outer loop
      vertex -5.55415 19.7549 8.68888
      vertex 0 19.8542 8.4657
      vertex 0 19.7549 8.68888
    endloop
  endfacet
  facet normal 0 -0.241958 -0.970287
    outer loop
      vertex -6.61752 22.0353 6.63558
      vertex 0 22.2723 6.57648
      vertex 0 22.0353 6.63558
    endloop
  endfacet
  facet normal -0 -0.241958 -0.970287
    outer loop
      vertex 0 22.2723 6.57648
      vertex -6.61752 22.0353 6.63558
      vertex -6.72806 22.2723 6.57648
    endloop
  endfacet
  facet normal -0 -0.997547 -0.0699961
    outer loop
      vertex 0 19.5192 9.63415
      vertex -5.4363 19.5021 9.87785
      vertex -5.44425 19.5192 9.63415
    endloop
  endfacet
  facet normal 0 -0.997547 -0.0699961
    outer loop
      vertex -5.4363 19.5021 9.87785
      vertex 0 19.5192 9.63415
      vertex 0 19.5021 9.87785
    endloop
  endfacet
  facet normal 0 0.0348007 0.999394
    outer loop
      vertex 0 23.2441 13.4915
      vertex -7.06738 23 13.5
      vertex 0 23 13.5
    endloop
  endfacet
  facet normal 0 0.0348007 0.999394
    outer loop
      vertex -7.06738 23 13.5
      vertex 0 23.2441 13.4915
      vertex -7.18123 23.2441 13.4915
    endloop
  endfacet
  facet normal 0 0.997547 -0.0699961
    outer loop
      vertex 0 26.4808 9.63415
      vertex -6 26.4979 9.87785
      vertex 0 26.4979 9.87785
    endloop
  endfacet
  facet normal 0 0.997547 -0.0699961
    outer loop
      vertex -6 26.4979 9.87785
      vertex 0 26.4808 9.63415
      vertex -6 26.4808 9.63415
    endloop
  endfacet
  facet normal 0 -0.978131 0.207991
    outer loop
      vertex -5.4601 19.5532 10.6078
      vertex 0 19.604 10.8467
      vertex -5.48379 19.604 10.8467
    endloop
  endfacet
  facet normal 0 -0.978131 0.207991
    outer loop
      vertex 0 19.604 10.8467
      vertex -5.4601 19.5532 10.6078
      vertex 0 19.5532 10.6078
    endloop
  endfacet
  facet normal 0 0.559227 0.829015
    outer loop
      vertex 0 25.0572 12.8316
      vertex -7.93225 24.8547 12.9682
      vertex 0 24.8547 12.9682
    endloop
  endfacet
  facet normal -0 0.559227 0.829015
    outer loop
      vertex -8 25.0572 12.8316
      vertex -7.93225 24.8547 12.9682
      vertex 0 25.0572 12.8316
    endloop
  endfacet
  facet normal 0.000637414 0.559373 0.828916
    outer loop
      vertex -7.93225 24.8547 12.9682
      vertex -8 25.0572 12.8316
      vertex -8 25 12.8702
    endloop
  endfacet
  facet normal 0 -0.500124 -0.865954
    outer loop
      vertex -6.20252 21.1453 7.03183
      vertex 0 21.3568 6.90968
      vertex 0 21.1453 7.03183
    endloop
  endfacet
  facet normal -0 -0.500124 -0.865954
    outer loop
      vertex 0 21.3568 6.90968
      vertex -6.20252 21.1453 7.03183
      vertex -6.30117 21.3568 6.90968
    endloop
  endfacet
  facet normal 0 0.308975 0.95107
    outer loop
      vertex 0 24.1971 13.2889
      vertex -7.51725 23.9647 13.3644
      vertex 0 23.9647 13.3644
    endloop
  endfacet
  facet normal 0 0.308975 0.95107
    outer loop
      vertex -7.51725 23.9647 13.3644
      vertex 0 24.1971 13.2889
      vertex -7.62559 24.1971 13.2889
    endloop
  endfacet
  facet normal 0 0.438318 -0.89882
    outer loop
      vertex -7.73121 24.4236 6.80259
      vertex 0 24.6432 6.90968
      vertex 0 24.4236 6.80259
    endloop
  endfacet
  facet normal 0 0.438318 -0.89882
    outer loop
      vertex 0 24.6432 6.90968
      vertex -7.73121 24.4236 6.80259
      vertex -7.8336 24.6432 6.90968
    endloop
  endfacet
  facet normal 0 -0.939602 0.342269
    outer loop
      vertex -5.51519 19.6713 11.0816
      vertex 0 19.7549 11.3111
      vertex -5.55415 19.7549 11.3111
    endloop
  endfacet
  facet normal 0 -0.939602 0.342269
    outer loop
      vertex 0 19.7549 11.3111
      vertex -5.51519 19.6713 11.0816
      vertex 0 19.6713 11.0816
    endloop
  endfacet
  facet normal 0 0.104527 -0.994522
    outer loop
      vertex -7.18123 23.2441 6.50852
      vertex 0 23.4871 6.53406
      vertex 0 23.2441 6.50852
    endloop
  endfacet
  facet normal 0 0.104527 -0.994522
    outer loop
      vertex 0 23.4871 6.53406
      vertex -7.18123 23.2441 6.50852
      vertex -7.29453 23.4871 6.53406
    endloop
  endfacet
  facet normal 0 -0.559227 0.829015
    outer loop
      vertex 0 21.1453 12.9682
      vertex -6.10807 20.9428 12.8316
      vertex 0 20.9428 12.8316
    endloop
  endfacet
  facet normal 0 -0.559227 0.829015
    outer loop
      vertex -6.10807 20.9428 12.8316
      vertex 0 21.1453 12.9682
      vertex -6.20252 21.1453 12.9682
    endloop
  endfacet
  facet normal 0 0.669236 -0.74305
    outer loop
      vertex -8 25.2498 7.31884
      vertex 0 25.4313 7.48231
      vertex 0 25.2498 7.31884
    endloop
  endfacet
  facet normal 0 0.669236 -0.74305
    outer loop
      vertex 0 25.4313 7.48231
      vertex -8 25.2498 7.31884
      vertex -8 25.4313 7.48231
    endloop
  endfacet
  facet normal 0 -0.88293 0.469504
    outer loop
      vertex -5.60048 19.8542 11.5343
      vertex 0 19.9689 11.75
      vertex -5.65396 19.9689 11.75
    endloop
  endfacet
  facet normal 0 -0.88293 0.469504
    outer loop
      vertex 0 19.9689 11.75
      vertex -5.60048 19.8542 11.5343
      vertex 0 19.8542 11.5343
    endloop
  endfacet
  facet normal 0 -0.719282 0.694719
    outer loop
      vertex -5.85452 20.399 12.342
      vertex 0 20.5687 12.5177
      vertex -5.93365 20.5687 12.5177
    endloop
  endfacet
  facet normal 0 -0.719282 0.694719
    outer loop
      vertex 0 20.5687 12.5177
      vertex -5.85452 20.399 12.342
      vertex 0 20.399 12.342
    endloop
  endfacet
  facet normal 0 1 -0
    outer loop
      vertex 0 26.4979 9.87785
      vertex -6 26.4979 10.1221
      vertex 0 26.4979 10.1221
    endloop
  endfacet
  facet normal 0 1 0
    outer loop
      vertex -6 26.4979 10.1221
      vertex 0 26.4979 9.87785
      vertex -6 26.4979 9.87785
    endloop
  endfacet
  facet normal 0 0.978131 0.207991
    outer loop
      vertex 0 26.4468 10.6078
      vertex -6 26.396 10.8467
      vertex 0 26.396 10.8467
    endloop
  endfacet
  facet normal 0 0.978131 0.207991
    outer loop
      vertex -6 26.396 10.8467
      vertex 0 26.4468 10.6078
      vertex -6 26.4468 10.6078
    endloop
  endfacet
  facet normal 0 -0.615469 -0.788161
    outer loop
      vertex -6.01831 20.7502 7.31884
      vertex 0 20.9428 7.16844
      vertex 0 20.7502 7.31884
    endloop
  endfacet
  facet normal -0 -0.615469 -0.788161
    outer loop
      vertex 0 20.9428 7.16844
      vertex -6.01831 20.7502 7.31884
      vertex -6.10807 20.9428 7.16844
    endloop
  endfacet
  facet normal 0 -1 0
    outer loop
      vertex -5.4363 19.5021 9.87785
      vertex 0 19.5021 10.1221
      vertex -5.4363 19.5021 10.1221
    endloop
  endfacet
  facet normal 0 -1 -0
    outer loop
      vertex 0 19.5021 10.1221
      vertex -5.4363 19.5021 9.87785
      vertex 0 19.5021 9.87785
    endloop
  endfacet
  facet normal 0 -0.0348825 -0.999391
    outer loop
      vertex -6.95354 22.7559 6.50852
      vertex 0 23 6.5
      vertex 0 22.7559 6.50852
    endloop
  endfacet
  facet normal -0 -0.0348825 -0.999391
    outer loop
      vertex 0 23 6.5
      vertex -6.95354 22.7559 6.50852
      vertex -7.06738 23 6.5
    endloop
  endfacet
  facet normal 0 0.990274 0.139129
    outer loop
      vertex 0 26.4808 10.3658
      vertex -6 26.4468 10.6078
      vertex 0 26.4468 10.6078
    endloop
  endfacet
  facet normal 0 0.990274 0.139129
    outer loop
      vertex -6 26.4468 10.6078
      vertex 0 26.4808 10.3658
      vertex -6 26.4808 10.3658
    endloop
  endfacet
  facet normal 0 0.438351 0.898804
    outer loop
      vertex 0 24.6432 13.0903
      vertex -7.73121 24.4236 13.1974
      vertex 0 24.4236 13.1974
    endloop
  endfacet
  facet normal 0 0.438351 0.898804
    outer loop
      vertex -7.73121 24.4236 13.1974
      vertex 0 24.6432 13.0903
      vertex -7.8336 24.6432 13.0903
    endloop
  endfacet
  facet normal 0 -0.241958 0.970287
    outer loop
      vertex 0 22.2723 13.4235
      vertex -6.61752 22.0353 13.3644
      vertex 0 22.0353 13.3644
    endloop
  endfacet
  facet normal 0 -0.241958 0.970287
    outer loop
      vertex -6.61752 22.0353 13.3644
      vertex 0 22.2723 13.4235
      vertex -6.72806 22.2723 13.4235
    endloop
  endfacet
  facet normal 0 -0.0348007 0.999394
    outer loop
      vertex 0 23 13.5
      vertex -6.95354 22.7559 13.4915
      vertex 0 22.7559 13.4915
    endloop
  endfacet
  facet normal 0 -0.0348007 0.999394
    outer loop
      vertex -6.95354 22.7559 13.4915
      vertex 0 23 13.5
      vertex -7.06738 23 13.5
    endloop
  endfacet
  facet normal -1 0 0
    outer loop
      vertex -8 27.4863 9.73868
      vertex -8 27.4985 10.0872
      vertex -8 27.4985 9.91275
    endloop
  endfacet
  facet normal -1 0 0
    outer loop
      vertex -8 27.4863 9.73868
      vertex -8 27.4863 10.2613
      vertex -8 27.4985 10.0872
    endloop
  endfacet
  facet normal -1 0 0
    outer loop
      vertex -8 27.462 9.56588
      vertex -8 27.4863 10.2613
      vertex -8 27.4863 9.73868
    endloop
  endfacet
  facet normal -1 0 0
    outer loop
      vertex -8 27.462 9.56588
      vertex -8 27.462 10.4341
      vertex -8 27.4863 10.2613
    endloop
  endfacet
  facet normal -1 0 0
    outer loop
      vertex -8 27.4257 9.3952
      vertex -8 27.462 10.4341
      vertex -8 27.462 9.56588
    endloop
  endfacet
  facet normal -1 0 0
    outer loop
      vertex -8 27.4257 9.3952
      vertex -8 27.4257 10.6048
      vertex -8 27.462 10.4341
    endloop
  endfacet
  facet normal -1 0 0
    outer loop
      vertex -8 27.3776 9.22746
      vertex -8 27.4257 10.6048
      vertex -8 27.4257 9.3952
    endloop
  endfacet
  facet normal -1 0 0
    outer loop
      vertex -8 27.3776 9.22746
      vertex -8 27.3776 10.7725
      vertex -8 27.4257 10.6048
    endloop
  endfacet
  facet normal -1 0 0
    outer loop
      vertex -8 27.318 9.06348
      vertex -8 27.3776 10.7725
      vertex -8 27.3776 9.22746
    endloop
  endfacet
  facet normal -1 0 0
    outer loop
      vertex -8 27.318 9.06348
      vertex -8 27.318 10.9365
      vertex -8 27.3776 10.7725
    endloop
  endfacet
  facet normal -1 0 0
    outer loop
      vertex -8 27.247 8.90407
      vertex -8 27.318 10.9365
      vertex -8 27.318 9.06348
    endloop
  endfacet
  facet normal -1 0 0
    outer loop
      vertex -8 27.247 8.90407
      vertex -8 27.247 11.0959
      vertex -8 27.318 10.9365
    endloop
  endfacet
  facet normal -1 0 0
    outer loop
      vertex -8 27.1651 8.75
      vertex -8 27.247 11.0959
      vertex -8 27.247 8.90407
    endloop
  endfacet
  facet normal -1 0 0
    outer loop
      vertex -8 27.1651 8.75
      vertex -8 27.1651 11.25
      vertex -8 27.247 11.0959
    endloop
  endfacet
  facet normal -1 0 0
    outer loop
      vertex -8 27.0726 8.60202
      vertex -8 27.1651 11.25
      vertex -8 27.1651 8.75
    endloop
  endfacet
  facet normal -1 0 0
    outer loop
      vertex -8 27.0726 8.60202
      vertex -8 27.0726 11.398
      vertex -8 27.1651 11.25
    endloop
  endfacet
  facet normal -1 0 0
    outer loop
      vertex -8 26.97 8.46085
      vertex -8 27.0726 11.398
      vertex -8 27.0726 8.60202
    endloop
  endfacet
  facet normal -1 0 0
    outer loop
      vertex -8 26.97 8.46085
      vertex -8 26.97 11.5392
      vertex -8 27.0726 11.398
    endloop
  endfacet
  facet normal -1 0 0
    outer loop
      vertex -8 26.8579 8.32717
      vertex -8 26.97 11.5392
      vertex -8 26.97 8.46085
    endloop
  endfacet
  facet normal -1 0 0
    outer loop
      vertex -8 26.8579 8.32717
      vertex -8 26.8579 11.6728
      vertex -8 26.97 11.5392
    endloop
  endfacet
  facet normal -1 0 0
    outer loop
      vertex -8 26.7366 8.20165
      vertex -8 26.8579 11.6728
      vertex -8 26.8579 8.32717
    endloop
  endfacet
  facet normal -1 0 0
    outer loop
      vertex -8 26.7366 8.20165
      vertex -8 26.7366 11.7983
      vertex -8 26.8579 11.6728
    endloop
  endfacet
  facet normal -1 0 0
    outer loop
      vertex -8 26.607 8.08489
      vertex -8 26.7366 11.7983
      vertex -8 26.7366 8.20165
    endloop
  endfacet
  facet normal -1 0 0
    outer loop
      vertex -8 26.607 8.08489
      vertex -8 26.607 11.9151
      vertex -8 26.7366 11.7983
    endloop
  endfacet
  facet normal -1 0 0
    outer loop
      vertex -8 26.4695 7.97746
      vertex -8 26.607 11.9151
      vertex -8 26.607 8.08489
    endloop
  endfacet
  facet normal -1 0 0
    outer loop
      vertex -8 26.4695 7.97746
      vertex -8 26.4695 12.0225
      vertex -8 26.607 11.9151
    endloop
  endfacet
  facet normal -1 0 0
    outer loop
      vertex -8 26.3248 7.87988
      vertex -8 26.4695 12.0225
      vertex -8 26.4695 7.97746
    endloop
  endfacet
  facet normal -1 0 0
    outer loop
      vertex -8 26.3248 7.87988
      vertex -8 26.3248 12.1201
      vertex -8 26.4695 12.0225
    endloop
  endfacet
  facet normal -1 0 0
    outer loop
      vertex -8 26.1737 7.79263
      vertex -8 26.3248 12.1201
      vertex -8 26.3248 7.87988
    endloop
  endfacet
  facet normal -1 0 0
    outer loop
      vertex -8 26.1737 7.79263
      vertex -8 26.1737 12.2074
      vertex -8 26.3248 12.1201
    endloop
  endfacet
  facet normal -1 0 0
    outer loop
      vertex -8 26.0168 7.71614
      vertex -8 26.1737 12.2074
      vertex -8 26.1737 7.79263
    endloop
  endfacet
  facet normal -1 0 0
    outer loop
      vertex -8 26.0168 7.71614
      vertex -8 26.0168 12.2839
      vertex -8 26.1737 12.2074
    endloop
  endfacet
  facet normal -1 0 0
    outer loop
      vertex -8 25.855 7.65077
      vertex -8 26.0168 12.2839
      vertex -8 26.0168 7.71614
    endloop
  endfacet
  facet normal -1 0 0
    outer loop
      vertex -8 25.855 7.65077
      vertex -8 25.855 12.3492
      vertex -8 26.0168 12.2839
    endloop
  endfacet
  facet normal -1 0 0
    outer loop
      vertex -8 25.6891 7.59685
      vertex -8 25.855 12.3492
      vertex -8 25.855 7.65077
    endloop
  endfacet
  facet normal -1 0 0
    outer loop
      vertex -8 25.6891 7.59685
      vertex -8 25.6891 12.4032
      vertex -8 25.855 12.3492
    endloop
  endfacet
  facet normal -1 0 0
    outer loop
      vertex -8 25.4973 7.55067
      vertex -8 25.6891 7.59685
      vertex -8 25.5198 7.55463
    endloop
  endfacet
  facet normal -1 -0 0
    outer loop
      vertex -8 25.6891 7.59685
      vertex -8 25.4973 7.55067
      vertex -8 25.6891 12.4032
    endloop
  endfacet
  facet normal -1 0 0
    outer loop
      vertex -8 25.4973 12.4493
      vertex -8 25.6891 12.4032
      vertex -8 25.4973 7.55067
    endloop
  endfacet
  facet normal -1 0 0
    outer loop
      vertex -8 25.6891 12.4032
      vertex -8 25.4973 12.4493
      vertex -8 25.5198 12.4454
    endloop
  endfacet
  facet normal -1 0 0
    outer loop
      vertex -8 25.2498 7.31884
      vertex -8 25.4973 7.55067
      vertex -8 25.4313 7.48231
    endloop
  endfacet
  facet normal -1 0 0
    outer loop
      vertex -8 25 7.12983
      vertex -8 25.4973 7.55067
      vertex -8 25.2498 7.31884
    endloop
  endfacet
  facet normal -1 -0 0
    outer loop
      vertex -8 25.4973 7.55067
      vertex -8 25 7.12983
      vertex -8 25.4973 12.4493
    endloop
  endfacet
  facet normal -1 0 0
    outer loop
      vertex -8 25.4973 12.4493
      vertex -8 25.2498 12.6812
      vertex -8 25.4313 12.5177
    endloop
  endfacet
  facet normal -1 0 0
    outer loop
      vertex -8 25 7.12983
      vertex -8 25.2498 7.31884
      vertex -8 25.0572 7.16844
    endloop
  endfacet
  facet normal -1 0 0
    outer loop
      vertex -8 25 12.8702
      vertex -8 25.4973 12.4493
      vertex -8 25 7.12983
    endloop
  endfacet
  facet normal -1 0 0
    outer loop
      vertex -8 25.4973 12.4493
      vertex -8 25 12.8702
      vertex -8 25.2498 12.6812
    endloop
  endfacet
  facet normal -1 0 0
    outer loop
      vertex -8 25.2498 12.6812
      vertex -8 25 12.8702
      vertex -8 25.0572 12.8316
    endloop
  endfacet
  facet normal 0 0.939631 -0.34219
    outer loop
      vertex 0 26.2451 8.68888
      vertex -6 26.3287 8.91844
      vertex 0 26.3287 8.91844
    endloop
  endfacet
  facet normal 0 0.939631 -0.34219
    outer loop
      vertex -6 26.3287 8.91844
      vertex 0 26.2451 8.68888
      vertex -6 26.2451 8.68888
    endloop
  endfacet
  facet normal -0 -0.939631 -0.34219
    outer loop
      vertex 0 19.7549 8.68888
      vertex -5.51519 19.6713 8.91844
      vertex -5.55415 19.7549 8.68888
    endloop
  endfacet
  facet normal 0 -0.939631 -0.34219
    outer loop
      vertex -5.51519 19.6713 8.91844
      vertex 0 19.7549 8.68888
      vertex 0 19.6713 8.91844
    endloop
  endfacet
  facet normal 0 0.997547 0.0699961
    outer loop
      vertex 0 26.4979 10.1221
      vertex -6 26.4808 10.3658
      vertex 0 26.4808 10.3658
    endloop
  endfacet
  facet normal 0 0.997547 0.0699961
    outer loop
      vertex -6 26.4808 10.3658
      vertex 0 26.4979 10.1221
      vertex -6 26.4979 10.1221
    endloop
  endfacet
  facet normal 0 -0.10477 0.994496
    outer loop
      vertex 0 22.7559 13.4915
      vertex -6.84024 22.5129 13.4659
      vertex 0 22.5129 13.4659
    endloop
  endfacet
  facet normal 0 -0.10477 0.994496
    outer loop
      vertex -6.84024 22.5129 13.4659
      vertex 0 22.7559 13.4915
      vertex -6.95354 22.7559 13.4915
    endloop
  endfacet
  facet normal 0 -0.808948 0.58788
    outer loop
      vertex -5.71433 20.0984 11.9572
      vertex 0 20.242 12.1548
      vertex -5.78129 20.242 12.1548
    endloop
  endfacet
  facet normal 0 -0.808948 0.58788
    outer loop
      vertex 0 20.242 12.1548
      vertex -5.71433 20.0984 11.9572
      vertex 0 20.0984 11.9572
    endloop
  endfacet
  facet normal 0 0.847975 -0.530036
    outer loop
      vertex 0 25.9016 8.04282
      vertex -6 26.0311 8.25
      vertex 0 26.0311 8.25
    endloop
  endfacet
  facet normal 0 0.847975 -0.530036
    outer loop
      vertex -6 26.0311 8.25
      vertex 0 25.9016 8.04282
      vertex -6 25.9016 8.04282
    endloop
  endfacet
  facet normal -0 -0.809005 -0.587802
    outer loop
      vertex 0 20.242 7.84518
      vertex -5.71433 20.0984 8.04282
      vertex -5.78129 20.242 7.84518
    endloop
  endfacet
  facet normal 0 -0.809005 -0.587802
    outer loop
      vertex -5.71433 20.0984 8.04282
      vertex 0 20.242 7.84518
      vertex 0 20.0984 8.04282
    endloop
  endfacet
  facet normal 0 0.88293 0.469504
    outer loop
      vertex 0 26.1458 11.5343
      vertex -6 26.0311 11.75
      vertex 0 26.0311 11.75
    endloop
  endfacet
  facet normal 0 0.88293 0.469504
    outer loop
      vertex -6 26.0311 11.75
      vertex 0 26.1458 11.5343
      vertex -6 26.1458 11.5343
    endloop
  endfacet
  facet normal -0 -0.88293 -0.469504
    outer loop
      vertex 0 19.9689 8.25
      vertex -5.60048 19.8542 8.4657
      vertex -5.65396 19.9689 8.25
    endloop
  endfacet
  facet normal 0 -0.88293 -0.469504
    outer loop
      vertex -5.60048 19.8542 8.4657
      vertex 0 19.9689 8.25
      vertex 0 19.8542 8.4657
    endloop
  endfacet
  facet normal 0 0.719293 -0.694707
    outer loop
      vertex 0 25.601 7.65804
      vertex -6 25.4973 7.55067
      vertex -6 25.601 7.65804
    endloop
  endfacet
  facet normal -1.71379e-06 0.719341 -0.694657
    outer loop
      vertex 0 25.4313 7.48231
      vertex -6 25.4973 7.55067
      vertex 0 25.601 7.65804
    endloop
  endfacet
  facet normal 0 0.719416 -0.694579
    outer loop
      vertex -8 25.4313 7.48231
      vertex -6 25.4973 7.55067
      vertex 0 25.4313 7.48231
    endloop
  endfacet
  facet normal 0 0.719416 -0.694579
    outer loop
      vertex -6 25.4973 7.55067
      vertex -8 25.4313 7.48231
      vertex -8 25.4973 7.55067
    endloop
  endfacet
  facet normal 0 -0.308975 -0.95107
    outer loop
      vertex -6.50918 21.8029 6.71108
      vertex 0 22.0353 6.63558
      vertex 0 21.8029 6.71108
    endloop
  endfacet
  facet normal -0 -0.308975 -0.95107
    outer loop
      vertex 0 22.0353 6.63558
      vertex -6.50918 21.8029 6.71108
      vertex -6.61752 22.0353 6.63558
    endloop
  endfacet
  facet normal 0 0.91366 0.40648
    outer loop
      vertex 0 26.2451 11.3111
      vertex -6 26.1458 11.5343
      vertex 0 26.1458 11.5343
    endloop
  endfacet
  facet normal 0 0.91366 0.40648
    outer loop
      vertex -6 26.1458 11.5343
      vertex 0 26.2451 11.3111
      vertex -6 26.2451 11.3111
    endloop
  endfacet
  facet normal 0 -0.669236 -0.74305
    outer loop
      vertex -5.93365 20.5687 7.48231
      vertex 0 20.7502 7.31884
      vertex 0 20.5687 7.48231
    endloop
  endfacet
  facet normal -0 -0.669236 -0.74305
    outer loop
      vertex 0 20.7502 7.31884
      vertex -5.93365 20.5687 7.48231
      vertex -6.01831 20.7502 7.31884
    endloop
  endfacet
  facet normal -0 0.669304 0.742989
    outer loop
      vertex -8 25.4313 12.5177
      vertex 0 25.2498 12.6812
      vertex 0 25.4313 12.5177
    endloop
  endfacet
  facet normal 0 0.669304 0.742989
    outer loop
      vertex 0 25.2498 12.6812
      vertex -8 25.4313 12.5177
      vertex -8 25.2498 12.6812
    endloop
  endfacet
  facet normal -0 -0.847975 -0.530036
    outer loop
      vertex 0 20.0984 8.04282
      vertex -5.65396 19.9689 8.25
      vertex -5.71433 20.0984 8.04282
    endloop
  endfacet
  facet normal 0 -0.847975 -0.530036
    outer loop
      vertex -5.65396 19.9689 8.25
      vertex 0 20.0984 8.04282
      vertex 0 19.9689 8.25
    endloop
  endfacet
  facet normal 0 -0.847998 0.529999
    outer loop
      vertex -5.65396 19.9689 11.75
      vertex 0 20.0984 11.9572
      vertex -5.71433 20.0984 11.9572
    endloop
  endfacet
  facet normal 0 -0.847998 0.529999
    outer loop
      vertex 0 20.0984 11.9572
      vertex -5.65396 19.9689 11.75
      vertex 0 19.9689 11.75
    endloop
  endfacet
  facet normal -0 -0.719341 -0.694657
    outer loop
      vertex 0 20.5687 7.48231
      vertex -5.85452 20.399 7.65804
      vertex -5.93365 20.5687 7.48231
    endloop
  endfacet
  facet normal 0 -0.719341 -0.694657
    outer loop
      vertex -5.85452 20.399 7.65804
      vertex 0 20.5687 7.48231
      vertex 0 20.399 7.65804
    endloop
  endfacet
  facet normal 0 -0.438351 0.898804
    outer loop
      vertex 0 21.5764 13.1974
      vertex -6.30117 21.3568 13.0903
      vertex 0 21.3568 13.0903
    endloop
  endfacet
  facet normal 0 -0.438351 0.898804
    outer loop
      vertex -6.30117 21.3568 13.0903
      vertex 0 21.5764 13.1974
      vertex -6.40356 21.5764 13.1974
    endloop
  endfacet
  facet normal 0 -0.669304 0.742989
    outer loop
      vertex 0 20.7502 12.6812
      vertex -5.93365 20.5687 12.5177
      vertex 0 20.5687 12.5177
    endloop
  endfacet
  facet normal 0 -0.669304 0.742989
    outer loop
      vertex -5.93365 20.5687 12.5177
      vertex 0 20.7502 12.6812
      vertex -6.01831 20.7502 12.6812
    endloop
  endfacet
  facet normal 0 -0.91366 0.40648
    outer loop
      vertex -5.55415 19.7549 11.3111
      vertex 0 19.8542 11.5343
      vertex -5.60048 19.8542 11.5343
    endloop
  endfacet
  facet normal 0 -0.91366 0.40648
    outer loop
      vertex 0 19.8542 11.5343
      vertex -5.55415 19.7549 11.3111
      vertex 0 19.7549 11.3111
    endloop
  endfacet
  facet normal 0 -0.766205 0.642597
    outer loop
      vertex -5.78129 20.242 12.1548
      vertex 0 20.399 12.342
      vertex -5.85452 20.399 12.342
    endloop
  endfacet
  facet normal 0 -0.766205 0.642597
    outer loop
      vertex 0 20.399 12.342
      vertex -5.78129 20.242 12.1548
      vertex 0 20.242 12.1548
    endloop
  endfacet
  facet normal 0 -0.961323 0.275424
    outer loop
      vertex -5.48379 19.604 10.8467
      vertex 0 19.6713 11.0816
      vertex -5.51519 19.6713 11.0816
    endloop
  endfacet
  facet normal 0 -0.961323 0.275424
    outer loop
      vertex 0 19.6713 11.0816
      vertex -5.48379 19.604 10.8467
      vertex 0 19.604 10.8467
    endloop
  endfacet
  facet normal 0 -0.990274 0.139129
    outer loop
      vertex -5.44425 19.5192 10.3658
      vertex 0 19.5532 10.6078
      vertex -5.4601 19.5532 10.6078
    endloop
  endfacet
  facet normal 0 -0.990274 0.139129
    outer loop
      vertex 0 19.5532 10.6078
      vertex -5.44425 19.5192 10.3658
      vertex 0 19.5192 10.3658
    endloop
  endfacet
  facet normal 0 0.808948 0.58788
    outer loop
      vertex 0 25.9016 11.9572
      vertex -6 25.758 12.1548
      vertex 0 25.758 12.1548
    endloop
  endfacet
  facet normal 0 0.808948 0.58788
    outer loop
      vertex -6 25.758 12.1548
      vertex 0 25.9016 11.9572
      vertex -6 25.9016 11.9572
    endloop
  endfacet
  facet normal 0 0.847998 0.529999
    outer loop
      vertex 0 26.0311 11.75
      vertex -6 25.9016 11.9572
      vertex 0 25.9016 11.9572
    endloop
  endfacet
  facet normal 0 0.847998 0.529999
    outer loop
      vertex -6 25.9016 11.9572
      vertex 0 26.0311 11.75
      vertex -6 26.0311 11.75
    endloop
  endfacet
  facet normal 0 0.499971 0.866042
    outer loop
      vertex 0 24.8547 12.9682
      vertex -7.8336 24.6432 13.0903
      vertex 0 24.6432 13.0903
    endloop
  endfacet
  facet normal 0 0.499971 0.866042
    outer loop
      vertex -7.8336 24.6432 13.0903
      vertex 0 24.8547 12.9682
      vertex -7.93225 24.8547 12.9682
    endloop
  endfacet
  facet normal 0 0.978141 -0.207941
    outer loop
      vertex 0 26.396 9.15327
      vertex -6 26.4468 9.39223
      vertex 0 26.4468 9.39223
    endloop
  endfacet
  facet normal 0 0.978141 -0.207941
    outer loop
      vertex -6 26.4468 9.39223
      vertex 0 26.396 9.15327
      vertex -6 26.396 9.15327
    endloop
  endfacet
  facet normal 0 0.173336 -0.984863
    outer loop
      vertex -8 25.4973 7.55067
      vertex -6 25.5198 7.55463
      vertex -6 25.4973 7.55067
    endloop
  endfacet
  facet normal 0 0.173336 -0.984863
    outer loop
      vertex -6 25.5198 7.55463
      vertex -8 25.4973 7.55067
      vertex -8 25.5198 7.55463
    endloop
  endfacet
  facet normal 0 0.241969 -0.970284
    outer loop
      vertex -8 25.5198 7.55463
      vertex -6 25.6891 7.59685
      vertex -6 25.5198 7.55463
    endloop
  endfacet
  facet normal 0 0.241969 -0.970284
    outer loop
      vertex -6 25.6891 7.59685
      vertex -8 25.5198 7.55463
      vertex -8 25.6891 7.59685
    endloop
  endfacet
  facet normal -0 0.669471 0.742838
    outer loop
      vertex -8 26.7366 11.7983
      vertex -6 26.607 11.9151
      vertex -6 26.7366 11.7983
    endloop
  endfacet
  facet normal 0 0.669471 0.742838
    outer loop
      vertex -6 26.607 11.9151
      vertex -8 26.7366 11.7983
      vertex -8 26.607 11.9151
    endloop
  endfacet
  facet normal 0 0.883034 0.469309
    outer loop
      vertex -6 27.247 11.0959
      vertex -8 27.1651 11.25
      vertex -6 27.1651 11.25
    endloop
  endfacet
  facet normal 0 0.883034 0.469309
    outer loop
      vertex -8 27.1651 11.25
      vertex -6 27.247 11.0959
      vertex -8 27.247 11.0959
    endloop
  endfacet
  facet normal 0 0.766244 -0.642549
    outer loop
      vertex -6 26.8579 8.32717
      vertex -8 26.97 8.46085
      vertex -6 26.97 8.46085
    endloop
  endfacet
  facet normal 0 0.766244 -0.642549
    outer loop
      vertex -8 26.97 8.46085
      vertex -6 26.8579 8.32717
      vertex -8 26.8579 8.32717
    endloop
  endfacet
  facet normal 0 0.939847 -0.341596
    outer loop
      vertex -6 27.318 9.06348
      vertex -8 27.3776 9.22746
      vertex -6 27.3776 9.22746
    endloop
  endfacet
  facet normal 0 0.939847 -0.341596
    outer loop
      vertex -8 27.3776 9.22746
      vertex -6 27.318 9.06348
      vertex -8 27.318 9.06348
    endloop
  endfacet
  facet normal 0 0.669345 -0.742952
    outer loop
      vertex -8 26.607 8.08489
      vertex -6 26.7366 8.20165
      vertex -6 26.607 8.08489
    endloop
  endfacet
  facet normal 0 0.669345 -0.742952
    outer loop
      vertex -6 26.7366 8.20165
      vertex -8 26.607 8.08489
      vertex -8 26.7366 8.20165
    endloop
  endfacet
  facet normal 0 0.997553 -0.0699152
    outer loop
      vertex -6 27.4863 9.73868
      vertex -8 27.4985 9.91275
      vertex -6 27.4985 9.91275
    endloop
  endfacet
  facet normal 0 0.997553 -0.0699152
    outer loop
      vertex -8 27.4985 9.91275
      vertex -6 27.4863 9.73868
      vertex -8 27.4863 9.73868
    endloop
  endfacet
  facet normal 0 0.978128 0.208003
    outer loop
      vertex -6 27.462 10.4341
      vertex -8 27.4257 10.6048
      vertex -6 27.4257 10.6048
    endloop
  endfacet
  facet normal 0 0.978128 0.208003
    outer loop
      vertex -8 27.4257 10.6048
      vertex -6 27.462 10.4341
      vertex -8 27.462 10.4341
    endloop
  endfacet
  facet normal 0 0.96126 -0.275644
    outer loop
      vertex -6 27.3776 9.22746
      vertex -8 27.4257 9.3952
      vertex -6 27.4257 9.3952
    endloop
  endfacet
  facet normal 0 0.96126 -0.275644
    outer loop
      vertex -8 27.4257 9.3952
      vertex -6 27.3776 9.22746
      vertex -8 27.3776 9.22746
    endloop
  endfacet
  facet normal 0 0.374599 -0.927187
    outer loop
      vertex -8 25.855 7.65077
      vertex -6 26.0168 7.71614
      vertex -6 25.855 7.65077
    endloop
  endfacet
  facet normal 0 0.374599 -0.927187
    outer loop
      vertex -6 26.0168 7.71614
      vertex -8 25.855 7.65077
      vertex -8 26.0168 7.71614
    endloop
  endfacet
  facet normal 0 0.882996 -0.46938
    outer loop
      vertex -6 27.1651 8.75
      vertex -8 27.247 8.90407
      vertex -6 27.247 8.90407
    endloop
  endfacet
  facet normal 0 0.882996 -0.46938
    outer loop
      vertex -8 27.247 8.90407
      vertex -6 27.1651 8.75
      vertex -8 27.1651 8.75
    endloop
  endfacet
  facet normal -0 0.615566 0.788085
    outer loop
      vertex -8 26.607 11.9151
      vertex -6 26.4695 12.0225
      vertex -6 26.607 11.9151
    endloop
  endfacet
  facet normal 0 0.615566 0.788085
    outer loop
      vertex -6 26.4695 12.0225
      vertex -8 26.607 11.9151
      vertex -8 26.4695 12.0225
    endloop
  endfacet
  facet normal 0 0.719036 0.694973
    outer loop
      vertex -6 26.8579 11.6728
      vertex -8 26.7366 11.7983
      vertex -6 26.7366 11.7983
    endloop
  endfacet
  facet normal 0 0.719036 0.694973
    outer loop
      vertex -8 26.7366 11.7983
      vertex -6 26.8579 11.6728
      vertex -8 26.8579 11.6728
    endloop
  endfacet
  facet normal 0 0.91348 0.406883
    outer loop
      vertex -6 27.318 10.9365
      vertex -8 27.247 11.0959
      vertex -6 27.247 11.0959
    endloop
  endfacet
  facet normal 0 0.91348 0.406883
    outer loop
      vertex -8 27.247 11.0959
      vertex -6 27.318 10.9365
      vertex -8 27.318 10.9365
    endloop
  endfacet
  facet normal 0 0.500053 -0.865995
    outer loop
      vertex -8 26.1737 7.79263
      vertex -6 26.3248 7.87988
      vertex -6 26.1737 7.79263
    endloop
  endfacet
  facet normal 0 0.500053 -0.865995
    outer loop
      vertex -6 26.3248 7.87988
      vertex -8 26.1737 7.79263
      vertex -8 26.3248 7.87988
    endloop
  endfacet
  facet normal 0 0.719091 -0.694915
    outer loop
      vertex -6 26.7366 8.20165
      vertex -8 26.8579 8.32717
      vertex -6 26.8579 8.32717
    endloop
  endfacet
  facet normal 0 0.719091 -0.694915
    outer loop
      vertex -8 26.8579 8.32717
      vertex -6 26.7366 8.20165
      vertex -8 26.7366 8.20165
    endloop
  endfacet
  facet normal 0 0.978123 -0.208026
    outer loop
      vertex -6 27.4257 9.3952
      vertex -8 27.462 9.56588
      vertex -6 27.462 9.56588
    endloop
  endfacet
  facet normal 0 0.978123 -0.208026
    outer loop
      vertex -8 27.462 9.56588
      vertex -6 27.4257 9.3952
      vertex -8 27.4257 9.3952
    endloop
  endfacet
  facet normal 0 0.847966 -0.53005
    outer loop
      vertex -6 27.0726 8.60202
      vertex -8 27.1651 8.75
      vertex -6 27.1651 8.75
    endloop
  endfacet
  facet normal 0 0.847966 -0.53005
    outer loop
      vertex -8 27.1651 8.75
      vertex -6 27.0726 8.60202
      vertex -8 27.0726 8.60202
    endloop
  endfacet
  facet normal 0 0.559109 -0.829094
    outer loop
      vertex -8 26.3248 7.87988
      vertex -6 26.4695 7.97746
      vertex -6 26.3248 7.87988
    endloop
  endfacet
  facet normal 0 0.559109 -0.829094
    outer loop
      vertex -6 26.4695 7.97746
      vertex -8 26.3248 7.87988
      vertex -8 26.4695 7.97746
    endloop
  endfacet
  facet normal 0 0.990257 0.139255
    outer loop
      vertex -6 27.4863 10.2613
      vertex -8 27.462 10.4341
      vertex -6 27.462 10.4341
    endloop
  endfacet
  facet normal 0 0.990257 0.139255
    outer loop
      vertex -8 27.462 10.4341
      vertex -6 27.4863 10.2613
      vertex -8 27.4863 10.2613
    endloop
  endfacet
  facet normal 0 0.309099 -0.95103
    outer loop
      vertex -8 25.6891 7.59685
      vertex -6 25.855 7.65077
      vertex -6 25.6891 7.59685
    endloop
  endfacet
  facet normal 0 0.309099 -0.95103
    outer loop
      vertex -6 25.855 7.65077
      vertex -8 25.6891 7.59685
      vertex -8 25.855 7.65077
    endloop
  endfacet
  facet normal 0 0.438208 -0.898874
    outer loop
      vertex -8 26.0168 7.71614
      vertex -6 26.1737 7.79263
      vertex -6 26.0168 7.71614
    endloop
  endfacet
  facet normal 0 0.438208 -0.898874
    outer loop
      vertex -6 26.1737 7.79263
      vertex -8 26.0168 7.71614
      vertex -8 26.1737 7.79263
    endloop
  endfacet
  facet normal -0 0.500268 0.865871
    outer loop
      vertex -8 26.3248 12.1201
      vertex -6 26.1737 12.2074
      vertex -6 26.3248 12.1201
    endloop
  endfacet
  facet normal 0 0.500268 0.865871
    outer loop
      vertex -6 26.1737 12.2074
      vertex -8 26.3248 12.1201
      vertex -8 26.1737 12.2074
    endloop
  endfacet
  facet normal 0 0.847998 0.529999
    outer loop
      vertex -6 27.1651 11.25
      vertex -8 27.0726 11.398
      vertex -6 27.0726 11.398
    endloop
  endfacet
  facet normal 0 0.847998 0.529999
    outer loop
      vertex -8 27.0726 11.398
      vertex -6 27.1651 11.25
      vertex -8 27.1651 11.25
    endloop
  endfacet
  facet normal 1 -0 0
    outer loop
      vertex -6 26.4979 10.1221
      vertex -6 27.4985 10.0872
      vertex -6 27.4863 10.2613
    endloop
  endfacet
  facet normal 1 0 0
    outer loop
      vertex -6 27.4985 10.0872
      vertex -6 26.4979 10.1221
      vertex -6 27.4985 9.91275
    endloop
  endfacet
  facet normal 1 0 0
    outer loop
      vertex -6 26.4979 10.1221
      vertex -6 27.4863 10.2613
      vertex -6 27.462 10.4341
    endloop
  endfacet
  facet normal 1 0 0
    outer loop
      vertex -6 26.4979 9.87785
      vertex -6 27.4985 9.91275
      vertex -6 26.4979 10.1221
    endloop
  endfacet
  facet normal 1 0 0
    outer loop
      vertex -6 26.4808 10.3658
      vertex -6 27.462 10.4341
      vertex -6 27.4257 10.6048
    endloop
  endfacet
  facet normal 1 0 0
    outer loop
      vertex -6 27.4985 9.91275
      vertex -6 26.4979 9.87785
      vertex -6 27.4863 9.73868
    endloop
  endfacet
  facet normal 1 0 0
    outer loop
      vertex -6 26.4808 10.3658
      vertex -6 27.4257 10.6048
      vertex -6 27.3776 10.7725
    endloop
  endfacet
  facet normal 1 0 0
    outer loop
      vertex -6 27.4863 9.73868
      vertex -6 26.4979 9.87785
      vertex -6 27.462 9.56588
    endloop
  endfacet
  facet normal 1 0 0
    outer loop
      vertex -6 26.4468 10.6078
      vertex -6 27.3776 10.7725
      vertex -6 27.318 10.9365
    endloop
  endfacet
  facet normal 1 -0 0
    outer loop
      vertex -6 26.4808 9.63415
      vertex -6 27.462 9.56588
      vertex -6 26.4979 9.87785
    endloop
  endfacet
  facet normal 1 0 0
    outer loop
      vertex -6 26.396 10.8467
      vertex -6 27.318 10.9365
      vertex -6 27.247 11.0959
    endloop
  endfacet
  facet normal 1 0 0
    outer loop
      vertex -6 27.462 9.56588
      vertex -6 26.4808 9.63415
      vertex -6 27.4257 9.3952
    endloop
  endfacet
  facet normal 1 0 0
    outer loop
      vertex -6 26.396 10.8467
      vertex -6 27.247 11.0959
      vertex -6 27.1651 11.25
    endloop
  endfacet
  facet normal 1 0 0
    outer loop
      vertex -6 27.4257 9.3952
      vertex -6 26.4808 9.63415
      vertex -6 27.3776 9.22746
    endloop
  endfacet
  facet normal 1 0 0
    outer loop
      vertex -6 26.3287 11.0816
      vertex -6 27.1651 11.25
      vertex -6 27.0726 11.398
    endloop
  endfacet
  facet normal 1 -0 0
    outer loop
      vertex -6 26.4468 9.39223
      vertex -6 27.3776 9.22746
      vertex -6 26.4808 9.63415
    endloop
  endfacet
  facet normal 1 0 0
    outer loop
      vertex -6 26.3287 11.0816
      vertex -6 27.0726 11.398
      vertex -6 26.97 11.5392
    endloop
  endfacet
  facet normal 1 0 0
    outer loop
      vertex -6 27.3776 9.22746
      vertex -6 26.4468 9.39223
      vertex -6 27.318 9.06348
    endloop
  endfacet
  facet normal 1 0 0
    outer loop
      vertex -6 26.2451 11.3111
      vertex -6 26.97 11.5392
      vertex -6 26.8579 11.6728
    endloop
  endfacet
  facet normal 1 -0 0
    outer loop
      vertex -6 26.396 9.15327
      vertex -6 27.318 9.06348
      vertex -6 26.4468 9.39223
    endloop
  endfacet
  facet normal 1 0 0
    outer loop
      vertex -6 26.2451 11.3111
      vertex -6 26.8579 11.6728
      vertex -6 26.7366 11.7983
    endloop
  endfacet
  facet normal 1 0 0
    outer loop
      vertex -6 27.318 9.06348
      vertex -6 26.396 9.15327
      vertex -6 27.247 8.90407
    endloop
  endfacet
  facet normal 1 0 0
    outer loop
      vertex -6 26.1458 11.5343
      vertex -6 26.7366 11.7983
      vertex -6 26.607 11.9151
    endloop
  endfacet
  facet normal 1 0 0
    outer loop
      vertex -6 27.247 8.90407
      vertex -6 26.396 9.15327
      vertex -6 27.1651 8.75
    endloop
  endfacet
  facet normal 1 -0 0
    outer loop
      vertex -6 26.3287 8.91844
      vertex -6 27.1651 8.75
      vertex -6 26.396 9.15327
    endloop
  endfacet
  facet normal 1 0 0
    outer loop
      vertex -6 27.462 10.4341
      vertex -6 26.4808 10.3658
      vertex -6 26.4979 10.1221
    endloop
  endfacet
  facet normal 1 0 0
    outer loop
      vertex -6 26.1458 11.5343
      vertex -6 26.607 11.9151
      vertex -6 26.4695 12.0225
    endloop
  endfacet
  facet normal 1 0 0
    outer loop
      vertex -6 27.3776 10.7725
      vertex -6 26.4468 10.6078
      vertex -6 26.4808 10.3658
    endloop
  endfacet
  facet normal 1 0 0
    outer loop
      vertex -6 27.318 10.9365
      vertex -6 26.396 10.8467
      vertex -6 26.4468 10.6078
    endloop
  endfacet
  facet normal 1 0 0
    outer loop
      vertex -6 27.1651 11.25
      vertex -6 26.3287 11.0816
      vertex -6 26.396 10.8467
    endloop
  endfacet
  facet normal 1 0 0
    outer loop
      vertex -6 26.0311 11.75
      vertex -6 26.4695 12.0225
      vertex -6 26.3248 12.1201
    endloop
  endfacet
  facet normal 1 0 0
    outer loop
      vertex -6 26.97 11.5392
      vertex -6 26.2451 11.3111
      vertex -6 26.3287 11.0816
    endloop
  endfacet
  facet normal 1 0 0
    outer loop
      vertex -6 25.9016 11.9572
      vertex -6 26.3248 12.1201
      vertex -6 26.1737 12.2074
    endloop
  endfacet
  facet normal 1 0 0
    outer loop
      vertex -6 26.7366 11.7983
      vertex -6 26.1458 11.5343
      vertex -6 26.2451 11.3111
    endloop
  endfacet
  facet normal 1 0 0
    outer loop
      vertex -6 26.4695 12.0225
      vertex -6 26.0311 11.75
      vertex -6 26.1458 11.5343
    endloop
  endfacet
  facet normal 1 0 0
    outer loop
      vertex -6 25.9016 11.9572
      vertex -6 26.1737 12.2074
      vertex -6 26.0168 12.2839
    endloop
  endfacet
  facet normal 1 0 0
    outer loop
      vertex -6 26.3248 12.1201
      vertex -6 25.9016 11.9572
      vertex -6 26.0311 11.75
    endloop
  endfacet
  facet normal 1 0 0
    outer loop
      vertex -6 25.758 12.1548
      vertex -6 26.0168 12.2839
      vertex -6 25.855 12.3492
    endloop
  endfacet
  facet normal 1 0 0
    outer loop
      vertex -6 26.0168 12.2839
      vertex -6 25.758 12.1548
      vertex -6 25.9016 11.9572
    endloop
  endfacet
  facet normal 1 0 0
    outer loop
      vertex -6 25.6891 12.4032
      vertex -6 25.758 12.1548
      vertex -6 25.855 12.3492
    endloop
  endfacet
  facet normal 1 0 0
    outer loop
      vertex -6 25.6891 12.4032
      vertex -6 25.601 12.342
      vertex -6 25.758 12.1548
    endloop
  endfacet
  facet normal 1 0 0
    outer loop
      vertex -6 25.5198 12.4454
      vertex -6 25.601 12.342
      vertex -6 25.6891 12.4032
    endloop
  endfacet
  facet normal 1 0 0
    outer loop
      vertex -6 25.601 12.342
      vertex -6 25.5198 12.4454
      vertex -6 25.4973 12.4493
    endloop
  endfacet
  facet normal 1 0 0
    outer loop
      vertex -6 27.1651 8.75
      vertex -6 26.3287 8.91844
      vertex -6 27.0726 8.60202
    endloop
  endfacet
  facet normal 1 0 0
    outer loop
      vertex -6 27.0726 8.60202
      vertex -6 26.3287 8.91844
      vertex -6 26.97 8.46085
    endloop
  endfacet
  facet normal 1 -0 0
    outer loop
      vertex -6 26.2451 8.68888
      vertex -6 26.97 8.46085
      vertex -6 26.3287 8.91844
    endloop
  endfacet
  facet normal 1 0 0
    outer loop
      vertex -6 26.97 8.46085
      vertex -6 26.2451 8.68888
      vertex -6 26.8579 8.32717
    endloop
  endfacet
  facet normal 1 0 0
    outer loop
      vertex -6 26.8579 8.32717
      vertex -6 26.2451 8.68888
      vertex -6 26.7366 8.20165
    endloop
  endfacet
  facet normal 1 -0 0
    outer loop
      vertex -6 26.1458 8.4657
      vertex -6 26.7366 8.20165
      vertex -6 26.2451 8.68888
    endloop
  endfacet
  facet normal 1 0 0
    outer loop
      vertex -6 26.7366 8.20165
      vertex -6 26.1458 8.4657
      vertex -6 26.607 8.08489
    endloop
  endfacet
  facet normal 1 0 0
    outer loop
      vertex -6 26.607 8.08489
      vertex -6 26.1458 8.4657
      vertex -6 26.4695 7.97746
    endloop
  endfacet
  facet normal 1 -0 0
    outer loop
      vertex -6 26.0311 8.25
      vertex -6 26.4695 7.97746
      vertex -6 26.1458 8.4657
    endloop
  endfacet
  facet normal 1 0 0
    outer loop
      vertex -6 26.4695 7.97746
      vertex -6 26.0311 8.25
      vertex -6 26.3248 7.87988
    endloop
  endfacet
  facet normal 1 -0 0
    outer loop
      vertex -6 25.9016 8.04282
      vertex -6 26.3248 7.87988
      vertex -6 26.0311 8.25
    endloop
  endfacet
  facet normal 1 0 0
    outer loop
      vertex -6 26.3248 7.87988
      vertex -6 25.9016 8.04282
      vertex -6 26.1737 7.79263
    endloop
  endfacet
  facet normal 1 0 0
    outer loop
      vertex -6 26.1737 7.79263
      vertex -6 25.9016 8.04282
      vertex -6 26.0168 7.71614
    endloop
  endfacet
  facet normal 1 -0 0
    outer loop
      vertex -6 25.758 7.84518
      vertex -6 26.0168 7.71614
      vertex -6 25.9016 8.04282
    endloop
  endfacet
  facet normal 1 0 0
    outer loop
      vertex -6 26.0168 7.71614
      vertex -6 25.758 7.84518
      vertex -6 25.855 7.65077
    endloop
  endfacet
  facet normal 1 0 0
    outer loop
      vertex -6 25.758 7.84518
      vertex -6 25.6891 7.59685
      vertex -6 25.855 7.65077
    endloop
  endfacet
  facet normal 1 -0 0
    outer loop
      vertex -6 25.601 7.65804
      vertex -6 25.6891 7.59685
      vertex -6 25.758 7.84518
    endloop
  endfacet
  facet normal 1 0 0
    outer loop
      vertex -6 25.601 7.65804
      vertex -6 25.5198 7.55463
      vertex -6 25.6891 7.59685
    endloop
  endfacet
  facet normal 1 0 -0
    outer loop
      vertex -6 25.5198 7.55463
      vertex -6 25.601 7.65804
      vertex -6 25.4973 7.55067
    endloop
  endfacet
  facet normal 0 0.997554 0.0699033
    outer loop
      vertex -6 27.4985 10.0872
      vertex -8 27.4863 10.2613
      vertex -6 27.4863 10.2613
    endloop
  endfacet
  facet normal 0 0.997554 0.0699033
    outer loop
      vertex -8 27.4863 10.2613
      vertex -6 27.4985 10.0872
      vertex -8 27.4985 10.0872
    endloop
  endfacet
  facet normal 0 0.961242 0.275705
    outer loop
      vertex -6 27.4257 10.6048
      vertex -8 27.3776 10.7725
      vertex -6 27.3776 10.7725
    endloop
  endfacet
  facet normal 0 0.961242 0.275705
    outer loop
      vertex -8 27.3776 10.7725
      vertex -6 27.4257 10.6048
      vertex -8 27.4257 10.6048
    endloop
  endfacet
  facet normal -0 0.374255 0.927326
    outer loop
      vertex -8 26.0168 12.2839
      vertex -6 25.855 12.3492
      vertex -6 26.0168 12.2839
    endloop
  endfacet
  facet normal 0 0.374255 0.927326
    outer loop
      vertex -6 25.855 12.3492
      vertex -8 26.0168 12.2839
      vertex -8 25.855 12.3492
    endloop
  endfacet
  facet normal 0 0.808924 -0.587913
    outer loop
      vertex -6 26.97 8.46085
      vertex -8 27.0726 8.60202
      vertex -6 27.0726 8.60202
    endloop
  endfacet
  facet normal 0 0.808924 -0.587913
    outer loop
      vertex -8 27.0726 8.60202
      vertex -6 26.97 8.46085
      vertex -8 26.97 8.46085
    endloop
  endfacet
  facet normal 0 0.808984 0.587831
    outer loop
      vertex -6 27.0726 11.398
      vertex -8 26.97 11.5392
      vertex -6 26.97 11.5392
    endloop
  endfacet
  facet normal 0 0.808984 0.587831
    outer loop
      vertex -8 26.97 11.5392
      vertex -6 27.0726 11.398
      vertex -8 27.0726 11.398
    endloop
  endfacet
  facet normal 0 0.990257 -0.139255
    outer loop
      vertex -6 27.462 9.56588
      vertex -8 27.4863 9.73868
      vertex -6 27.4863 9.73868
    endloop
  endfacet
  facet normal 0 0.990257 -0.139255
    outer loop
      vertex -8 27.4863 9.73868
      vertex -6 27.462 9.56588
      vertex -8 27.462 9.56588
    endloop
  endfacet
  facet normal 0 0.91349 -0.406861
    outer loop
      vertex -6 27.247 8.90407
      vertex -8 27.318 9.06348
      vertex -6 27.318 9.06348
    endloop
  endfacet
  facet normal 0 0.91349 -0.406861
    outer loop
      vertex -8 27.318 9.06348
      vertex -6 27.247 8.90407
      vertex -8 27.247 8.90407
    endloop
  endfacet
  facet normal 0 0.615673 -0.788002
    outer loop
      vertex -8 26.4695 7.97746
      vertex -6 26.607 8.08489
      vertex -6 26.4695 7.97746
    endloop
  endfacet
  facet normal 0 0.615673 -0.788002
    outer loop
      vertex -6 26.607 8.08489
      vertex -8 26.4695 7.97746
      vertex -8 26.607 8.08489
    endloop
  endfacet
  facet normal 0 1 -0
    outer loop
      vertex -6 27.4985 9.91275
      vertex -8 27.4985 10.0872
      vertex -6 27.4985 10.0872
    endloop
  endfacet
  facet normal 0 1 0
    outer loop
      vertex -8 27.4985 10.0872
      vertex -6 27.4985 9.91275
      vertex -8 27.4985 9.91275
    endloop
  endfacet
  facet normal -0 0.241861 0.970311
    outer loop
      vertex -8 25.6891 12.4032
      vertex -6 25.5198 12.4454
      vertex -6 25.6891 12.4032
    endloop
  endfacet
  facet normal 0 0.241861 0.970311
    outer loop
      vertex -6 25.5198 12.4454
      vertex -8 25.6891 12.4032
      vertex -8 25.5198 12.4454
    endloop
  endfacet
  facet normal 0 0.93986 0.341559
    outer loop
      vertex -6 27.3776 10.7725
      vertex -8 27.318 10.9365
      vertex -6 27.318 10.9365
    endloop
  endfacet
  facet normal 0 0.93986 0.341559
    outer loop
      vertex -8 27.318 10.9365
      vertex -6 27.3776 10.7725
      vertex -8 27.3776 10.7725
    endloop
  endfacet
  facet normal 0 0.766055 0.642775
    outer loop
      vertex -6 26.97 11.5392
      vertex -8 26.8579 11.6728
      vertex -6 26.8579 11.6728
    endloop
  endfacet
  facet normal 0 0.766055 0.642775
    outer loop
      vertex -8 26.8579 11.6728
      vertex -6 26.97 11.5392
      vertex -8 26.97 11.5392
    endloop
  endfacet
  facet normal -0 0.170787 0.985308
    outer loop
      vertex -8 25.5198 12.4454
      vertex -6 25.4973 12.4493
      vertex -6 25.5198 12.4454
    endloop
  endfacet
  facet normal 0 0.170787 0.985308
    outer loop
      vertex -6 25.4973 12.4493
      vertex -8 25.5198 12.4454
      vertex -8 25.4973 12.4493
    endloop
  endfacet
  facet normal -0 0.438254 0.898851
    outer loop
      vertex -8 26.1737 12.2074
      vertex -6 26.0168 12.2839
      vertex -6 26.1737 12.2074
    endloop
  endfacet
  facet normal 0 0.438254 0.898851
    outer loop
      vertex -6 26.0168 12.2839
      vertex -8 26.1737 12.2074
      vertex -8 26.0168 12.2839
    endloop
  endfacet
  facet normal -0 0.309514 0.950895
    outer loop
      vertex -8 25.855 12.3492
      vertex -6 25.6891 12.4032
      vertex -6 25.855 12.3492
    endloop
  endfacet
  facet normal 0 0.309514 0.950895
    outer loop
      vertex -6 25.6891 12.4032
      vertex -8 25.855 12.3492
      vertex -8 25.6891 12.4032
    endloop
  endfacet
  facet normal -0 0.559187 0.829041
    outer loop
      vertex -8 26.4695 12.0225
      vertex -6 26.3248 12.1201
      vertex -6 26.4695 12.0225
    endloop
  endfacet
  facet normal 0 0.559187 0.829041
    outer loop
      vertex -6 26.3248 12.1201
      vertex -8 26.4695 12.0225
      vertex -8 26.3248 12.1201
    endloop
  endfacet
  facet normal -1 0 0
    outer loop
      vertex 10.2 0 0
      vertex 10.2 25.2 20
      vertex 10.2 25.2 0
    endloop
  endfacet
  facet normal -1 -0 0
    outer loop
      vertex 10.2 25.2 20
      vertex 10.2 0 0
      vertex 10.2 0 20
    endloop
  endfacet
  facet normal 1 -0 0
    outer loop
      vertex 4.8 0 20
      vertex 4.8 25.2 0
      vertex 4.8 25.2 20
    endloop
  endfacet
  facet normal 1 0 0
    outer loop
      vertex 4.8 25.2 0
      vertex 4.8 0 20
      vertex 4.8 0 0
    endloop
  endfacet
  facet normal 0 -1 0
    outer loop
      vertex 4.8 25.2 0
      vertex 10.2 25.2 20
      vertex 4.8 25.2 20
    endloop
  endfacet
  facet normal 0 -1 -0
    outer loop
      vertex 10.2 25.2 20
      vertex 4.8 25.2 0
      vertex 10.2 25.2 0
    endloop
  endfacet
  facet normal -0.905946 -0.42339 0.00143559
    outer loop
      vertex -7.8336 24.6432 6.90968
      vertex -8 25 7.12983
      vertex -7.93225 24.8547 7.03183
    endloop
  endfacet
  facet normal -0.906287 -0.422663 0
    outer loop
      vertex -8 25 7.12983
      vertex -7.8336 24.6432 6.90968
      vertex -8 25 12.8702
    endloop
  endfacet
  facet normal -0.906287 -0.422663 -0
    outer loop
      vertex -7.8336 24.6432 13.0903
      vertex -8 25 12.8702
      vertex -7.8336 24.6432 6.90968
    endloop
  endfacet
  facet normal -0.905947 -0.423388 -0.0014321
    outer loop
      vertex -8 25 12.8702
      vertex -7.8336 24.6432 13.0903
      vertex -7.93225 24.8547 12.9682
    endloop
  endfacet
  facet normal -0.906325 -0.42258 0
    outer loop
      vertex -7.73121 24.4236 6.80259
      vertex -7.8336 24.6432 13.0903
      vertex -7.8336 24.6432 6.90968
    endloop
  endfacet
  facet normal -0.906325 -0.42258 0
    outer loop
      vertex -7.73121 24.4236 6.80259
      vertex -7.73121 24.4236 13.1974
      vertex -7.8336 24.6432 13.0903
    endloop
  endfacet
  facet normal -0.906306 -0.422623 0
    outer loop
      vertex -7.62559 24.1971 6.71108
      vertex -7.73121 24.4236 13.1974
      vertex -7.73121 24.4236 6.80259
    endloop
  endfacet
  facet normal -0.906306 -0.422623 0
    outer loop
      vertex -7.62559 24.1971 6.71108
      vertex -7.62559 24.1971 13.2889
      vertex -7.73121 24.4236 13.1974
    endloop
  endfacet
  facet normal -0.906352 -0.422522 0
    outer loop
      vertex -7.51725 23.9647 6.63558
      vertex -7.62559 24.1971 13.2889
      vertex -7.62559 24.1971 6.71108
    endloop
  endfacet
  facet normal -0.906352 -0.422522 0
    outer loop
      vertex -7.51725 23.9647 6.63558
      vertex -7.51725 23.9647 13.3644
      vertex -7.62559 24.1971 13.2889
    endloop
  endfacet
  facet normal -0.906271 -0.422697 0
    outer loop
      vertex -7.40671 23.7277 6.57648
      vertex -7.51725 23.9647 13.3644
      vertex -7.51725 23.9647 6.63558
    endloop
  endfacet
  facet normal -0.906271 -0.422697 0
    outer loop
      vertex -7.40671 23.7277 6.57648
      vertex -7.40671 23.7277 13.4235
      vertex -7.51725 23.9647 13.3644
    endloop
  endfacet
  facet normal -0.906327 -0.422576 0
    outer loop
      vertex -7.29453 23.4871 6.53406
      vertex -7.40671 23.7277 13.4235
      vertex -7.40671 23.7277 6.57648
    endloop
  endfacet
  facet normal -0.906327 -0.422576 0
    outer loop
      vertex -7.29453 23.4871 6.53406
      vertex -7.29453 23.4871 13.4659
      vertex -7.40671 23.7277 13.4235
    endloop
  endfacet
  facet normal -0.906326 -0.422579 0
    outer loop
      vertex -7.18123 23.2441 6.50852
      vertex -7.29453 23.4871 13.4659
      vertex -7.29453 23.4871 6.53406
    endloop
  endfacet
  facet normal -0.906326 -0.422579 0
    outer loop
      vertex -7.18123 23.2441 6.50852
      vertex -7.18123 23.2441 13.4915
      vertex -7.29453 23.4871 13.4659
    endloop
  endfacet
  facet normal -0.906273 -0.422692 0
    outer loop
      vertex -7.06738 23 6.5
      vertex -7.18123 23.2441 13.4915
      vertex -7.18123 23.2441 6.50852
    endloop
  endfacet
  facet normal -0.906273 -0.422692 0
    outer loop
      vertex -7.06738 23 6.5
      vertex -7.06738 23 13.5
      vertex -7.18123 23.2441 13.4915
    endloop
  endfacet
  facet normal -0.906287 -0.422662 0
    outer loop
      vertex -6.95354 22.7559 6.50852
      vertex -7.06738 23 13.5
      vertex -7.06738 23 6.5
    endloop
  endfacet
  facet normal -0.906287 -0.422662 0
    outer loop
      vertex -6.95354 22.7559 6.50852
      vertex -6.95354 22.7559 13.4915
      vertex -7.06738 23 13.5
    endloop
  endfacet
  facet normal -0.906326 -0.422579 0
    outer loop
      vertex -6.84024 22.5129 6.53406
      vertex -6.95354 22.7559 13.4915
      vertex -6.95354 22.7559 6.50852
    endloop
  endfacet
  facet normal -0.906326 -0.422579 0
    outer loop
      vertex -6.84024 22.5129 6.53406
      vertex -6.84024 22.5129 13.4659
      vertex -6.95354 22.7559 13.4915
    endloop
  endfacet
  facet normal -0.906327 -0.422576 0
    outer loop
      vertex -6.72806 22.2723 6.57648
      vertex -6.84024 22.5129 13.4659
      vertex -6.84024 22.5129 6.53406
    endloop
  endfacet
  facet normal -0.906327 -0.422576 0
    outer loop
      vertex -6.72806 22.2723 6.57648
      vertex -6.72806 22.2723 13.4235
      vertex -6.84024 22.5129 13.4659
    endloop
  endfacet
  facet normal -0.906271 -0.422697 0
    outer loop
      vertex -6.61752 22.0353 6.63558
      vertex -6.72806 22.2723 13.4235
      vertex -6.72806 22.2723 6.57648
    endloop
  endfacet
  facet normal -0.906271 -0.422697 0
    outer loop
      vertex -6.61752 22.0353 6.63558
      vertex -6.61752 22.0353 13.3644
      vertex -6.72806 22.2723 13.4235
    endloop
  endfacet
  facet normal -0.906352 -0.422522 0
    outer loop
      vertex -6.50918 21.8029 6.71108
      vertex -6.61752 22.0353 13.3644
      vertex -6.61752 22.0353 6.63558
    endloop
  endfacet
  facet normal -0.906352 -0.422522 0
    outer loop
      vertex -6.50918 21.8029 6.71108
      vertex -6.50918 21.8029 13.2889
      vertex -6.61752 22.0353 13.3644
    endloop
  endfacet
  facet normal -0.906306 -0.422623 0
    outer loop
      vertex -6.40356 21.5764 6.80259
      vertex -6.50918 21.8029 13.2889
      vertex -6.50918 21.8029 6.71108
    endloop
  endfacet
  facet normal -0.906306 -0.422623 0
    outer loop
      vertex -6.40356 21.5764 6.80259
      vertex -6.40356 21.5764 13.1974
      vertex -6.50918 21.8029 13.2889
    endloop
  endfacet
  facet normal -0.906325 -0.42258 0
    outer loop
      vertex -6.30117 21.3568 6.90968
      vertex -6.40356 21.5764 13.1974
      vertex -6.40356 21.5764 6.80259
    endloop
  endfacet
  facet normal -0.906325 -0.42258 0
    outer loop
      vertex -6.30117 21.3568 6.90968
      vertex -6.30117 21.3568 13.0903
      vertex -6.40356 21.5764 13.1974
    endloop
  endfacet
  facet normal -0.906265 -0.42271 0
    outer loop
      vertex -6.20252 21.1453 7.03183
      vertex -6.30117 21.3568 13.0903
      vertex -6.30117 21.3568 6.90968
    endloop
  endfacet
  facet normal -0.906265 -0.42271 0
    outer loop
      vertex -6.20252 21.1453 7.03183
      vertex -6.20252 21.1453 12.9682
      vertex -6.30117 21.3568 13.0903
    endloop
  endfacet
  facet normal -0.906269 -0.422702 0
    outer loop
      vertex -6.10807 20.9428 7.16844
      vertex -6.20252 21.1453 12.9682
      vertex -6.20252 21.1453 7.03183
    endloop
  endfacet
  facet normal -0.906269 -0.422702 0
    outer loop
      vertex -6.10807 20.9428 7.16844
      vertex -6.10807 20.9428 12.8316
      vertex -6.20252 21.1453 12.9682
    endloop
  endfacet
  facet normal -0.906399 -0.422422 0
    outer loop
      vertex -6.01831 20.7502 7.31884
      vertex -6.10807 20.9428 12.8316
      vertex -6.10807 20.9428 7.16844
    endloop
  endfacet
  facet normal -0.906399 -0.422422 0
    outer loop
      vertex -6.01831 20.7502 7.31884
      vertex -6.01831 20.7502 12.6812
      vertex -6.10807 20.9428 12.8316
    endloop
  endfacet
  facet normal -0.90626 -0.422721 0
    outer loop
      vertex -5.93365 20.5687 7.48231
      vertex -6.01831 20.7502 12.6812
      vertex -6.01831 20.7502 7.31884
    endloop
  endfacet
  facet normal -0.90626 -0.422721 0
    outer loop
      vertex -5.93365 20.5687 7.48231
      vertex -5.93365 20.5687 12.5177
      vertex -6.01831 20.7502 12.6812
    endloop
  endfacet
  facet normal -0.906313 -0.422608 0
    outer loop
      vertex -5.85452 20.399 7.65804
      vertex -5.93365 20.5687 12.5177
      vertex -5.93365 20.5687 7.48231
    endloop
  endfacet
  facet normal -0.906313 -0.422608 0
    outer loop
      vertex -5.85452 20.399 7.65804
      vertex -5.85452 20.399 12.342
      vertex -5.93365 20.5687 12.5177
    endloop
  endfacet
  facet normal -0.906264 -0.422712 0
    outer loop
      vertex -5.78129 20.242 7.84518
      vertex -5.85452 20.399 12.342
      vertex -5.85452 20.399 7.65804
    endloop
  endfacet
  facet normal -0.906264 -0.422712 0
    outer loop
      vertex -5.78129 20.242 7.84518
      vertex -5.78129 20.242 12.1548
      vertex -5.85452 20.399 12.342
    endloop
  endfacet
  facet normal -0.906312 -0.422609 0
    outer loop
      vertex -5.71433 20.0984 8.04282
      vertex -5.78129 20.242 12.1548
      vertex -5.78129 20.242 7.84518
    endloop
  endfacet
  facet normal -0.906312 -0.422609 0
    outer loop
      vertex -5.71433 20.0984 8.04282
      vertex -5.71433 20.0984 11.9572
      vertex -5.78129 20.242 12.1548
    endloop
  endfacet
  facet normal -0.906353 -0.422521 0
    outer loop
      vertex -5.65396 19.9689 8.25
      vertex -5.71433 20.0984 11.9572
      vertex -5.71433 20.0984 8.04282
    endloop
  endfacet
  facet normal -0.906353 -0.422521 0
    outer loop
      vertex -5.65396 19.9689 8.25
      vertex -5.65396 19.9689 11.75
      vertex -5.71433 20.0984 11.9572
    endloop
  endfacet
  facet normal -0.906324 -0.422583 0
    outer loop
      vertex -5.60048 19.8542 8.4657
      vertex -5.65396 19.9689 11.75
      vertex -5.65396 19.9689 8.25
    endloop
  endfacet
  facet normal -0.906324 -0.422583 0
    outer loop
      vertex -5.60048 19.8542 8.4657
      vertex -5.60048 19.8542 11.5343
      vertex -5.65396 19.9689 11.75
    endloop
  endfacet
  facet normal -0.906218 -0.422811 0
    outer loop
      vertex -5.55415 19.7549 8.68888
      vertex -5.60048 19.8542 11.5343
      vertex -5.60048 19.8542 8.4657
    endloop
  endfacet
  facet normal -0.906218 -0.422811 0
    outer loop
      vertex -5.55415 19.7549 8.68888
      vertex -5.55415 19.7549 11.3111
      vertex -5.60048 19.8542 11.5343
    endloop
  endfacet
  facet normal -0.906405 -0.422411 0
    outer loop
      vertex -5.51519 19.6713 8.91844
      vertex -5.55415 19.7549 11.3111
      vertex -5.55415 19.7549 8.68888
    endloop
  endfacet
  facet normal -0.906405 -0.422411 0
    outer loop
      vertex -5.51519 19.6713 8.91844
      vertex -5.51519 19.6713 11.0816
      vertex -5.55415 19.7549 11.3111
    endloop
  endfacet
  facet normal -0.906218 -0.422812 0
    outer loop
      vertex -5.48379 19.604 9.15327
      vertex -5.51519 19.6713 11.0816
      vertex -5.51519 19.6713 8.91844
    endloop
  endfacet
  facet normal -0.906218 -0.422812 0
    outer loop
      vertex -5.48379 19.604 9.15327
      vertex -5.48379 19.604 10.8467
      vertex -5.51519 19.6713 11.0816
    endloop
  endfacet
  facet normal -0.906297 -0.422641 0
    outer loop
      vertex -5.4601 19.5532 9.39223
      vertex -5.48379 19.604 10.8467
      vertex -5.48379 19.604 9.15327
    endloop
  endfacet
  facet normal -0.906297 -0.422641 0
    outer loop
      vertex -5.4601 19.5532 9.39223
      vertex -5.4601 19.5532 10.6078
      vertex -5.48379 19.604 10.8467
    endloop
  endfacet
  facet normal -0.906353 -0.422521 0
    outer loop
      vertex -5.44425 19.5192 9.63415
      vertex -5.4601 19.5532 10.6078
      vertex -5.4601 19.5532 9.39223
    endloop
  endfacet
  facet normal -0.906353 -0.422521 0
    outer loop
      vertex -5.44425 19.5192 9.63415
      vertex -5.44425 19.5192 10.3658
      vertex -5.4601 19.5532 10.6078
    endloop
  endfacet
  facet normal -0.906792 -0.421579 0
    outer loop
      vertex -5.4363 19.5021 9.87785
      vertex -5.44425 19.5192 10.3658
      vertex -5.44425 19.5192 9.63415
    endloop
  endfacet
  facet normal -0.906792 -0.421579 0
    outer loop
      vertex -5.44425 19.5192 10.3658
      vertex -5.4363 19.5021 9.87785
      vertex -5.4363 19.5021 10.1221
    endloop
  endfacet
endsolid OpenSCAD_Model
