solid OpenSCAD_Model
  facet normal 1 -0 0
    outer loop
      vertex 5 1 4
      vertex 5 5 0
      vertex 5 5 4
    endloop
  endfacet
  facet normal 1 0 0
    outer loop
      vertex 5 5 0
      vertex 5 1 4
      vertex 5 1 0
    endloop
  endfacet
  facet normal 0 0 -1
    outer loop
      vertex 6 0 4
      vertex 5 1 4
      vertex 6 6 4
    endloop
  endfacet
  facet normal 0 0 -1
    outer loop
      vertex 6 0 4
      vertex 1 1 4
      vertex 5 1 4
    endloop
  endfacet
  facet normal -0 0 -1
    outer loop
      vertex 1 1 4
      vertex 0 0 4
      vertex 1 5 4
    endloop
  endfacet
  facet normal 0 0 -1
    outer loop
      vertex 0 0 4
      vertex 1 1 4
      vertex 6 0 4
    endloop
  endfacet
  facet normal 0 0 -1
    outer loop
      vertex 5 5 4
      vertex 6 6 4
      vertex 5 1 4
    endloop
  endfacet
  facet normal 0 0 -1
    outer loop
      vertex 1 5 4
      vertex 6 6 4
      vertex 5 5 4
    endloop
  endfacet
  facet normal 0 0 -1
    outer loop
      vertex 1 5 4
      vertex 0 6 4
      vertex 6 6 4
    endloop
  endfacet
  facet normal 0 0 -1
    outer loop
      vertex 0 6 4
      vertex 1 5 4
      vertex 0 0 4
    endloop
  endfacet
  facet normal 0 0 -1
    outer loop
      vertex 1 1 0
      vertex 5 5 0
      vertex 5 1 0
    endloop
  endfacet
  facet normal -0 0 -1
    outer loop
      vertex 5 5 0
      vertex 1 1 0
      vertex 1 5 0
    endloop
  endfacet
  facet normal -1 0 0
    outer loop
      vertex 1 1 0
      vertex 1 5 4
      vertex 1 5 0
    endloop
  endfacet
  facet normal -1 -0 0
    outer loop
      vertex 1 5 4
      vertex 1 1 0
      vertex 1 1 4
    endloop
  endfacet
  facet normal 0 1 -0
    outer loop
      vertex 5 5 0
      vertex 1 5 4
      vertex 5 5 4
    endloop
  endfacet
  facet normal 0 1 0
    outer loop
      vertex 1 5 4
      vertex 5 5 0
      vertex 1 5 0
    endloop
  endfacet
  facet normal 0 -1 0
    outer loop
      vertex 1 1 0
      vertex 5 1 4
      vertex 1 1 4
    endloop
  endfacet
  facet normal 0 -1 -0
    outer loop
      vertex 5 1 4
      vertex 1 1 0
      vertex 5 1 0
    endloop
  endfacet
  facet normal 1 -0 0
    outer loop
      vertex 6 0 44
      vertex 6 6 4
      vertex 6 6 44
    endloop
  endfacet
  facet normal 1 0 0
    outer loop
      vertex 6 6 4
      vertex 6 0 44
      vertex 6 0 4
    endloop
  endfacet
  facet normal 0 0 1
    outer loop
      vertex 6 6 44
      vertex 5 5 44
      vertex 6 0 44
    endloop
  endfacet
  facet normal 0 0 1
    outer loop
      vertex 6 6 44
      vertex 1 5 44
      vertex 5 5 44
    endloop
  endfacet
  facet normal 0 0 1
    outer loop
      vertex 1 5 44
      vertex 0 6 44
      vertex 1 1 44
    endloop
  endfacet
  facet normal -0 0 1
    outer loop
      vertex 0 6 44
      vertex 1 5 44
      vertex 6 6 44
    endloop
  endfacet
  facet normal -0 0 1
    outer loop
      vertex 5 1 44
      vertex 6 0 44
      vertex 5 5 44
    endloop
  endfacet
  facet normal -0 0 1
    outer loop
      vertex 1 1 44
      vertex 6 0 44
      vertex 5 1 44
    endloop
  endfacet
  facet normal 0 0 1
    outer loop
      vertex 1 1 44
      vertex 0 0 44
      vertex 6 0 44
    endloop
  endfacet
  facet normal 0 0 1
    outer loop
      vertex 0 0 44
      vertex 1 1 44
      vertex 0 6 44
    endloop
  endfacet
  facet normal -1 0 0
    outer loop
      vertex 0 0 4
      vertex 0 6 44
      vertex 0 6 4
    endloop
  endfacet
  facet normal -1 -0 0
    outer loop
      vertex 0 6 44
      vertex 0 0 4
      vertex 0 0 44
    endloop
  endfacet
  facet normal 0 1 -0
    outer loop
      vertex 6 6 4
      vertex 0 6 44
      vertex 6 6 44
    endloop
  endfacet
  facet normal 0 1 0
    outer loop
      vertex 0 6 44
      vertex 6 6 4
      vertex 0 6 4
    endloop
  endfacet
  facet normal 0 -1 0
    outer loop
      vertex 0 0 4
      vertex 6 0 44
      vertex 0 0 44
    endloop
  endfacet
  facet normal 0 -1 -0
    outer loop
      vertex 6 0 44
      vertex 0 0 4
      vertex 6 0 4
    endloop
  endfacet
  facet normal 1 -0 0
    outer loop
      vertex 5 1 47
      vertex 5 5 44
      vertex 5 5 47
    endloop
  endfacet
  facet normal 1 0 0
    outer loop
      vertex 5 5 44
      vertex 5 1 47
      vertex 5 1 44
    endloop
  endfacet
  facet normal -0 0 1
    outer loop
      vertex 1 5 47
      vertex 5 1 47
      vertex 5 5 47
    endloop
  endfacet
  facet normal 0 0 1
    outer loop
      vertex 5 1 47
      vertex 1 5 47
      vertex 1 1 47
    endloop
  endfacet
  facet normal -1 0 0
    outer loop
      vertex 1 1 44
      vertex 1 5 47
      vertex 1 5 44
    endloop
  endfacet
  facet normal -1 -0 0
    outer loop
      vertex 1 5 47
      vertex 1 1 44
      vertex 1 1 47
    endloop
  endfacet
  facet normal 0 1 -0
    outer loop
      vertex 5 5 44
      vertex 1 5 47
      vertex 5 5 47
    endloop
  endfacet
  facet normal 0 1 0
    outer loop
      vertex 1 5 47
      vertex 5 5 44
      vertex 1 5 44
    endloop
  endfacet
  facet normal 0 -1 0
    outer loop
      vertex 1 1 44
      vertex 5 1 47
      vertex 1 1 47
    endloop
  endfacet
  facet normal 0 -1 -0
    outer loop
      vertex 5 1 47
      vertex 1 1 44
      vertex 5 1 44
    endloop
  endfacet
endsolid OpenSCAD_Model
